<?xml version="1.0" encoding="utf-8"?>
<!-- Generator: Adobe Illustrator 18.0.0, SVG Export Plug-In . SVG Version: 6.00 Build 0)  -->
<!DOCTYPE svg PUBLIC "-//W3C//DTD SVG 1.1//EN" "http://www.w3.org/Graphics/SVG/1.1/DTD/svg11.dtd">
<svg version="1.1" id="Layer_1" xmlns="http://www.w3.org/2000/svg" xmlns:xlink="http://www.w3.org/1999/xlink" x="0px" y="0px"
	 viewBox="0 0 550.2 510.2" enable-background="new 0 0 550.2 510.2" xml:space="preserve">
<linearGradient id="SVGID_1_" gradientUnits="userSpaceOnUse" x1="471.8688" y1="902.7856" x2="474.1437" y2="902.7856">
	<stop  offset="5.618000e-03" style="stop-color:#8D191B"/>
	<stop  offset="0.1116" style="stop-color:#9B1C1F"/>
	<stop  offset="0.2" style="stop-color:#A91E23"/>
	<stop  offset="0.5" style="stop-color:#630D0D"/>
	<stop  offset="0.8" style="stop-color:#A91E23"/>
	<stop  offset="0.9494" style="stop-color:#8D191B"/>
</linearGradient>
<path fill="url(#SVGID_1_)" d="M471.9,901.9c0.8,0.4,1.6,0.9,2.3,1.7C473.5,902.9,472.7,902.3,471.9,901.9z"/>
<linearGradient id="SVGID_2_" gradientUnits="userSpaceOnUse" x1="466.342" y1="901.1762" x2="470.55" y2="901.1762">
	<stop  offset="5.618000e-03" style="stop-color:#8D191B"/>
	<stop  offset="0.1116" style="stop-color:#9B1C1F"/>
	<stop  offset="0.2" style="stop-color:#A91E23"/>
	<stop  offset="0.5" style="stop-color:#630D0D"/>
	<stop  offset="0.8" style="stop-color:#A91E23"/>
	<stop  offset="0.9494" style="stop-color:#8D191B"/>
</linearGradient>
<path fill="url(#SVGID_2_)" d="M466.3,900.9c1.4,0,2.9,0.1,4.2,0.5C469.2,901,467.7,900.9,466.3,900.9z"/>
<g>
	<path fill-rule="evenodd" clip-rule="evenodd" fill="#1A2857" d="M476.7,19.5c-67.3,0-129.4,0.3-201.8-19.5
		C201.4,20.9,140.4,19.5,73.1,19.5v245.1c0,177.2,134.5,181.2,201.8,245.6c67.3-64.5,201.8-68.4,201.8-245.6
		C476.7,182.9,476.7,101.2,476.7,19.5L476.7,19.5z"/>
	<path fill-rule="evenodd" clip-rule="evenodd" fill="#FFFFFF" d="M100.1,250.6V47.3c13.8,0,27.6,0,41.3-0.4
		c46-1.1,89.1-5.8,133.4-17.8l0,0v221.5"/>
	<path fill-rule="evenodd" clip-rule="evenodd" fill="#00994C" d="M100.1,250.6v13.5c0,60.3,15.6,106.7,64.9,143.3
		c34.3,25.5,76,41.2,109.8,67.3v-224H100.1z"/>
	<path fill-rule="evenodd" clip-rule="evenodd" fill="#00994C" d="M449.7,250.6V47.3c-13.8,0-27.6,0-41.3-0.4
		c-46-1.1-89.1-5.8-133.4-17.8l0,0v221.5"/>
	<path fill-rule="evenodd" clip-rule="evenodd" fill="#FFFFFF" d="M449.7,250.6v13.5c0,60.3-15.6,106.7-64.9,143.3
		c-34.3,25.5-76,41.2-109.8,67.3v-224L449.7,250.6z"/>
	<path fill-rule="evenodd" clip-rule="evenodd" fill="#1A2857" d="M173.8,66.5c0,0.9,0.5,0,0.5,0.7c0.4,0.1,7.1,1.8,7,1.8
		c1.6-3.3,6.2,1.8,7.9,3.2c0,2.5,1.3,4.7,1.1,8.4c1.2,0.7,5.3,3.7,2,6.1c0,2.1-0.9,8.2-3.6,8.8c-0.3,2,0.3,4,0,6.1
		c-0.6,0.3-1,1.2-1.1,1.9c-0.3,1.8-5.7,3.4-5.7,5.1c-2.8,0-1.1,4-0.9,5.2c0.8,0.1,4.1,1.4,4.5,1.8c1.3,0,6.9,2.7,9,5.2
		c0,3.3,5.4,7.6,5.4,10.6c1.7,1.3,3.3,10.1,5.4,9c0,1.6,2.9,12.1-2,10.8c0-1.2-6.7-0.7-8.1-0.7c0-1.1,1.5-2.9,2.2-2.8
		c4.2,1,2.4-1.6,1.9-4.2c-0.4,0-2.9,2.5-2.9,3.2c-0.8,0-3.5,0.9-5,0.9c0,0.7-3.2,2.1-3.6,2.9c-2.3,0.6-2.3,3.4-2.7,5.2
		c1.1,0.4,3.6-6,7.2-6.1c0.4,1,0,3.8-0.7,4.1c0-0.7-0.1-0.3-0.5-0.7c0.2,0,0.4-0.1,0.5-0.2c-1.9,0-3.4,1.9-3.4,3.6
		c2.5,0,5.8-2.7,5.7-5.4c1,0,10.2,1.1,7.5,2.9c0,1.9-8.3,1.2-3.8,6.1c0.9,0.5,2.6,5.9,2.7,5.9c0,1.1-0.2,6.8,0.2,7.7
		c2,1.4,1.3,9.5,0.5,12c0,2.3,0.2,9.7-0.7,12c-2.4,0-5.5,16.1-6.3,18.3c0.4,0-6.2-7.2-6.3-0.7c0.1,0,3.6,4.3-0.2,3.6
		c-1.5-0.3-2.1,1-4.2,0.7c-4.2-0.5,0.1-5.5,0.1-8.1c0-4.7,3-29.7-2-31c-0.6,2.2-1.1,1.6-1.4,4.1c-2.4,1.9-1.1,8.2-1.1,11.2
		c0,3.6-3.3,16.5-0.2,18.8c0,0.5,0.5,7.1-1.8,3.6c-0.5,0-0.9-1.7-0.9-2.3c-0.7,0-0.4-3.2-1.4-3.2c-0.8-1.7-3.4,0-4.5,0
		c-0.3,1.6-1.2,4.7-3.4,4.7c-4,5.3-3.7-1.1-3.7-5.2c0-8.3,1-14.2,1-21.2c0.8,0-2.7-12.9-3.4-15.2c-1.5-0.5-3.4-8.4-3.4-10.2
		c-2-1-0.7-5.8-1.1-7.9c-1.6-0.2-3.3-1.2-4.2-2.6c-1.2-2.1-2.7-1.3-3.5-4.1c-0.4,0.2-0.9,0.3-1.4,0.4c0.1-1.2,0.7-1.2,0.7-2.3
		c-2,0-0.5,0.7-2,1.1c-0.9-3.4-6.1-5.9-9.3-5.9c0-0.6-3.8-2-4.1-4.1c-1.4-1.3-4.1-4.2-5.6-5c-5.6-6.1,5.4-8.6,5.4-12.2
		c2.8,0,5.8-7.5,8.4-7.5c0.6-2.3,3.6-3.7,5-5.4c0.8-0.1,7.5-2.1,7.5-1.6c2.4,0,12-2.8,6.5-7.3c-2.8-2.3-4.3-11.6-4.3-15.5
		c-0.7,0,3.6-14.9,3.6-14.9c1.4,0,2.5-2.7,4.5-2.1C167,70,169.1,66.2,173.8,66.5"/>
	<path fill-rule="evenodd" clip-rule="evenodd" fill="none" stroke="#010101" d="M173.6,69.5c4.9,0,0.8-0.5,2-0.5
		C175.6,67.5,173.6,67.9,173.6,69.5"/>
	<path fill-rule="evenodd" clip-rule="evenodd" fill="none" stroke="#010101" d="M170.6,68.8c0,0.4,0.6,1.3,1.1,0.2
		C171.3,68.6,171.8,68.8,170.6,68.8"/>
	<path fill="#FFFFFF" d="M169.3,69.2c-0.8,1.5-1.1,4-3.2,2.5c-2.7-1.8,0.1,3.8,0.1,1.7c1.2-0.9,1.8,0.7,2.7-0.7
		C170.7,72.8,170.6,69.2,169.3,69.2"/>
	<path fill="#FFFFFF" d="M174.7,73.7c-0.8,0-0.9,1.1-0.9,1.8c3.4,0,6-6.3,2.9-6.3C176.5,71.6,175.1,72,174.7,73.7"/>
	<path fill="#FFFFFF" d="M184.6,72.6c0.2-1.1-0.2-1.7-1.1-1.8C183.5,71.6,183,72.4,184.6,72.6"/>
	<path fill="#FFFFFF" d="M180.1,71.5c-0.2,0.6-0.1,0.8,0.4,0.7C180.8,71.6,180.6,71.3,180.1,71.5"/>
	<path fill="#FFFFFF" d="M185.1,73.1c0,1.1,1,1.5,2,1.6C187.1,73.8,185.8,73.2,185.1,73.1"/>
	<path fill="#FFFFFF" d="M168.8,74.4c0,1.5,2.6,2.7,3.2,0.9C171,74.8,170,74.2,168.8,74.4"/>
	<path fill="#FFFFFF" d="M176.9,79.9c1.4,0.2,1.4,1.4,2.5,1.8c0-1.5,9.9-2,3.8-4.3c-0.4-0.6-4-2.4-4.5-2.3
		C178.8,76.6,176.9,77.7,176.9,79.9"/>
	<path fill="#FFFFFF" d="M162.9,76.9c-0.1,1.2,1.1,5.5,1.8,5.6c-0.1-0.2,0-0.3,0.2-0.2C164.5,81.3,165.5,76.1,162.9,76.9"/>
	<path fill="#FFFFFF" d="M166.1,82.3c-1.4,0,1,3.8,2.1,0.5C168.8,80.9,166.5,80.7,166.1,82.3"/>
	<path fill="#FFFFFF" d="M172.9,88.4c-0.2,2.3,4.2,7.7,4.8,4.5C178.3,89.3,175.3,88.3,172.9,88.4"/>
	<path fill="#FFFFFF" d="M181,90.9c-0.2,0.8,2.7,3.3,4.3,3.4C186.8,90.5,182.9,90.9,181,90.9"/>
	<path fill="#FFFFFF" d="M182.4,96.3c-1.3-0.3-1.4,0.2-2,0.2C180.3,97.7,183,98.4,182.4,96.3"/>
	<path fill="#FFFFFF" d="M177.4,103.1c0.5,0.1,1.1,0.2,1.6,0.2c0.5-1.4-0.4-1.8-1.8-1.8C176.7,102.8,177.1,102.2,177.4,103.1"/>
	<path fill="#FFFFFF" d="M164.5,109c0,0.9,1.4,1.9,2,0.7C166,109,165.3,108.8,164.5,109"/>
	<path fill="#FFFFFF" d="M168.4,109.9c-0.5,1.1,1.2,1.7,1.6,0.5C169.6,109.8,169.1,109.6,168.4,109.9"/>
	<path fill="#FFFFFF" d="M145.3,114.4c-3.4,0.8-1.9,5.9-5.9,5.9c-0.8,1-4,1.9-2.5,3.3c0.9,0.9,2.2,1.9,3.6,2.1c1-2.9,13.6-4.4,5-9
		c1.2-3.1,7.9-0.4,7.9-0.9c2.3,0,4.1,0.8,4.3-3.2c-1-0.5-2.4-0.1-2.9-1.1C153.1,111.5,145.3,109.6,145.3,114.4"/>
	<path fill="#FFFFFF" d="M153.7,119.6c0,1.2-12.7,12.1-8.4,13.6c0-10.3,14.8-19.3,23.3-16.5c-1.6,2.4-7,8-7,10.6
		c-1.3,0-7.9,10.7-8.4,12.7c3.7-0.8,5.7-10.8,8.4-10.8c0.7-2.1,6-11.3,8.4-12c-0.1,0.2,0,0.3,0.2,0.2c0,1.4-7,11.5-7.7,11.5
		c-1.3,4-6.4,6.9-7,11.1c2.6-0.5,6.9-7.8,7.7-10.2c3.5-1.7,3.9-10.2,8.1-11.3c0,1,2.3,4.1,2.7,5.4c0,2.9,0,3.5,0,6.6
		c-0.3,0-1.2,4.1-1.4,4.7c1.2,0-9.6,13.2-9.7,13.8c0.9,0,1.6-1.1,2.5-1.6c0.4,0.9,2.9,1.6,3.8,1.6c0-0.2-4.7-4.7-1.4-4.7
		c0.5-0.6,2.2-3.2,2.5-3.2c0-1.3,2.6-6.5,3.8-6.8c-0.1,0.2,0,0.3,0.2,0.2c0,1.8-1.2,3.1-1.6,5.2c2.2,0.8,4.3-0.3,4.3,2.7
		c1.1,0,2.9-0.3,4.1,0.5c0.9,1.9,2.8-0.9,2-0.9c0-4.6,4.6-11.8-1.8-14.7c0.4-1.7,4.1,0.7,4.7,0.9c0-1.9-3.6-3.6-3.6-4.1
		c-5.3,0,0.1,3.5-2.9,5c0-0.4-6.6-7.7-5.4-7.7c0-2.9-4.3-4.7-4.3-5.2c-1-0.2-7.2-2.3-7.2-0.7C158.7,115.5,157.6,118.6,153.7,119.6"
		/>
	<path fill="#FFFFFF" d="M186.2,122.8c0.5,2.5,1.3,0.9,2.3,0.9c-0.2-0.9-3.5-4.2-4.7-4.8c-2.8,0-3.7-2.3-6.8-2.7
		c-1.8,4.8,1.1,6.5,4.7,5.9C181.7,123.2,185.5,122.6,186.2,122.8"/>
	<path fill="#FFFFFF" d="M188.9,118.7C188.9,119.8,189.4,118.7,188.9,118.7"/>
	<path fill="#FFFFFF" d="M191,121.2c0,4.4,2.7,6.7,2.7,10.2c0.6,0,0.4,2.7,1.1,2.7c0.4,1.4,2.2,2,3.3,2.7c3.5,2.3-0.4,1.7-0.4,2.7
		c7.5,0-0.9-8.2-0.9-9.3C194.8,128.9,194.4,120.2,191,121.2"/>
	<path fill="#FFFFFF" d="M136.7,125.7C139.7,125.7,136.1,123.1,136.7,125.7"/>
	<path fill="#FFFFFF" d="M139.2,126.6c0.6-1.7,0,0,0-0.9C138.5,125.9,138.4,126.4,139.2,126.6"/>
	<path fill="#FFFFFF" d="M134.9,129.8c0,1.7,12.1,11,13.4,11.4c7.1,2.3-4.6-5.8-4.6-6.2c-2.1-0.7-2.6-3.8-3.8-5.2
		C139.9,124.4,127.5,127.9,134.9,129.8"/>
	<path fill-rule="evenodd" clip-rule="evenodd" fill="#1A2857" d="M181.2,137.5c-2.1,0-3.8-4.6-1.1-4.7
		C180.6,134.1,181.8,135.6,181.2,137.5"/>
	<path fill="#FFFFFF" d="M200.9,140.6C198.5,145.1,205.3,140.6,200.9,140.6"/>
	<path fill="#FFFFFF" d="M158.2,145.8c0.2,1.1,0.4,1.1,0.4,1.6c2.9,0-2.3-5.7-5-5.9c-0.8,0.9-2.5,4.9-0.9,5.4
		c2.1,2.3,3.7-1.5,1.1-1.5c-0.8,0,0.7-3.5,2-1.5C157,144,156,145.9,158.2,145.8"/>
	<path fill="#FFFFFF" d="M205.4,143.3C205.4,144.4,206.5,143.3,205.4,143.3"/>
	<path fill="#FFFFFF" d="M203.2,144.7c-0.1,0.6,0.1,0.8,0.9,0.4C204.1,144.7,203.8,144.6,203.2,144.7"/>
	<path fill="#FFFFFF" d="M161.8,146.1c0,1,0.9,2.5,1.4,0.2C162.7,146.2,162.3,146.1,161.8,146.1"/>
	<path fill-rule="evenodd" clip-rule="evenodd" fill="none" stroke="#010101" d="M201.1,146.5C201.1,147.6,201.6,146.5,201.1,146.5"
		/>
	<path fill="#FFFFFF" d="M163.6,149.2c-0.7,1.8,2.2,2.8,2.9,1.4C165.3,149.9,165.1,149.2,163.6,149.2"/>
	<path fill="#FFFFFF" d="M161.1,149.4c0,1-0.4-0.2,0,1.1c0.7,0,1-0.5,1.1-1.1C161.9,149.4,161.5,149.4,161.1,149.4"/>
	<path fill="#FFFFFF" d="M157.3,150.1c0,0.9,0.2,1,1.1,1.1C158.8,150.1,158.5,150.1,157.3,150.1"/>
	<path fill="#FFFFFF" d="M166.6,152.4c-0.6,0.1-2.5,4.5-2.5,5.4c-1.8,0,4.7,4.2,4.8,4.5c1.1,1.2-2.6,1.6-2.7,2.9
		c-0.2,3.7,1.4,2.1,3.4,4.8c0.8,0,4.4,3.5,5.4,4.3c0,2.6-6.2-0.5-4.7,4.7c0.5,0.1,2.7,1.5,2.7,1.6c4,1.4,1.2-3.6,3.4-4.3
		c0.9-1.3-1.5-13.3-0.5-13.3c0-1.2-1.8-7.9-2.9-7.9C172.5,153.4,167,150.3,166.6,152.4"/>
	<path fill="#FFFFFF" d="M174,151.9c0.7,2.7,5.4,1.7,6.5,4.1c2,1.9,4.4-2,1.4-2.5C181.9,154.1,174.9,151.9,174,151.9"/>
	<path fill-rule="evenodd" clip-rule="evenodd" fill="none" stroke="#010101" d="M190,154.6c-0.1,1.6-0.2,0.4-0.9,0.4
		C189.1,154.6,189.6,154.6,190,154.6"/>
	<path fill="#FFFFFF" d="M191,166.8c0.6,2.5-2.8,3.8-2.3,6.8c1.8,0.6,2.7,4.6,4.7,1.8c6.5-0.7,2.7-6.2,2.7-9.9
		c-0.9,0-0.7-2.6-3.2-2.3C193,163.5,187.7,166,191,166.8"/>
	<path fill="#FFFFFF" d="M196.4,176.5c0-0.3-1.8,1.6-1.8,1.6c0,1.5,1.6,2.7,1.6,2.9C199.8,181.1,200,176.5,196.4,176.5"/>
	<path fill-rule="evenodd" clip-rule="evenodd" fill="#1A2857" d="M172.7,220.8c-0.3,2.8,2.8,6.4-1.1,6.3
		C170,225.6,169.8,220.3,172.7,220.8"/>
	<path fill-rule="evenodd" clip-rule="evenodd" fill="#1A2857" d="M163.6,222.6c0.9-0.1,3.8-1.6,3.8,0.2c0.4,0.3,4.3,5.8,1.3,4.7
		c-0.3-0.1-1.7-1.1-1.7-1.3c-2.8-2.1-1.9,0.2-4.5,0.2c-0.8,3.7-7.3,3.7-10.2,3.2C152.3,227.4,162.5,218.9,163.6,222.6"/>
	<path fill-rule="evenodd" clip-rule="evenodd" fill="#1A2857" d="M176.7,221.1c0.6,3.5-1.7,2.2-1.8,0.2
		C175.5,221.2,176.1,221.1,176.7,221.1"/>
	<path fill-rule="evenodd" clip-rule="evenodd" fill="#1A2857" d="M202,221.5C203.7,221.5,202,222,202,221.5"/>
	<path fill-rule="evenodd" clip-rule="evenodd" fill="#1A2857" d="M178.3,222.9c0,1.2,0.7-0.4,0.2,1.1
		C177.2,224.5,176.3,223,178.3,222.9"/>
	<path fill-rule="evenodd" clip-rule="evenodd" fill="#1A2857" d="M203.6,226c3.6-0.3,3.8,0.9,0.4,0.9c-0.4-0.7-1.8-0.3-2.7-0.7
		C200.5,224.1,203.2,224.3,203.6,226"/>
	<path fill-rule="evenodd" clip-rule="evenodd" fill="#1A2857" d="M178.1,226.5c-1.2,0.3-2.3-0.2-2.7-0.2
		C176.1,224.1,178.1,224.8,178.1,226.5"/>
	<path fill-rule="evenodd" clip-rule="evenodd" fill="#1A2857" d="M192.1,228.7c0.2,0,5.6,0.1,5.6,0.9c-1.9,0-6.3,1.2-7.9-0.2
		C190.6,229.4,191.4,229.2,192.1,228.7"/>
	<path fill-rule="evenodd" clip-rule="evenodd" fill="#1A2857" d="M185.5,229.2c0.4,0.1,1.1,0,1.1,0.5c-0.7,0.1-1.4,0.1-2-0.2
		C185.3,229.7,185.6,229.6,185.5,229.2"/>
	<path fill="#0B1439" d="M206.7,220.7c-2.4,0-8.7-0.9-10.1-0.4c-1.6,0.6-1.4-0.5-2,2.1c-0.1,0.3-0.6,4.9-0.5,4.8
		c-1.3,1.9-10.7,0.9-10.3,2.1c0.4,1.2,18.7,0.2,20.4-0.2c-1.1-0.7-8.8-1.9-8.2-4.1c0.3-1.2,3.8,1.9,5,2.2c1.7,0.3,3.9,0.6,5.6,1.5
		C207.4,226,209.4,222.3,206.7,220.7"/>
	<g>
		<g>
			<g>
				<g>
					<g>
						<g>
							<path fill="#0B1439" d="M263.4,163.8c0.2,0.1,0.3,0.3,0.2,0.2c0.4,0.2,0.3,0.3,0.4,0.2c0.2,0.1,0.4,0.4,0.2,0.2l0.6,0.4
								l-0.3-0.3c0.2,0,0.6,0.5,0.7,0.5l-0.6-0.5l0.1,0c-0.2-0.1-0.4-0.3-0.5-0.4c0,0,0,0,0.1,0.1c-0.8-0.6-0.3,0-1-0.5
								C263.3,163.7,263.3,163.8,263.4,163.8z"/>
							<path fill="#0B1439" d="M262.9,163.1l-0.3-0.1l-0.4-0.4c0,0-0.4-0.2-0.2,0c0,0,0.1,0.1,0.2,0.1c-0.1,0-0.6-0.4-0.6-0.3
								c0.4,0.3,0.4,0.3,0.7,0.4c0.3,0.3,0.6,0.5,0.7,0.6c0.1,0.1,0.2,0,0.3,0.1c0,0-0.1,0-0.1-0.1l0.1-0.1
								c-0.1-0.1-0.2-0.1-0.3-0.2l0.6,0.3c-0.1-0.2-0.7-0.6-0.8-0.8C262.9,163.1,262.4,162.7,262.9,163.1z"/>
							<path fill="#0B1439" d="M263.2,163.7L263.2,163.7L263.2,163.7z"/>
							<path fill="#0B1439" d="M219.8,140.9c-0.1,0-0.2,0.1-0.2,0.1l1.6-0.2c-0.1,0-0.5,0-0.2-0.1c-0.1,0-0.6,0.1-0.6,0.1l0.1-0.1
								c-0.4,0.1-0.6,0-0.4-0.1l0,0c0,0-0.2,0.1-0.5,0.2c-0.2,0.1-0.5,0.2-0.5,0.2C219.5,141,219.4,140.9,219.8,140.9z"/>
							<path fill="#0B1439" d="M190.7,155.7c0.1-0.1,0.2-0.2,0.1-0.2C190.8,155.6,190.7,155.7,190.7,155.7z"/>
							<path fill="#0B1439" d="M218.9,141.2l-0.3,0.1C218.7,141.3,218.8,141.2,218.9,141.2z"/>
							<path fill="#0B1439" d="M221,139.7C221,139.7,221,139.7,221,139.7l-0.1,0l0,0C220.9,139.7,220.9,139.7,221,139.7z"/>
							<path fill="#0B1439" d="M211.9,143.3C211.9,143.3,211.9,143.3,211.9,143.3L211.9,143.3z"/>
							<path fill="#0B1439" d="M225.5,139.2l-0.8,0c0.1,0-0.3,0-0.1-0.1c-0.1,0-0.3,0-0.3,0l0.2,0c-0.4,0.1-0.2,0.1-0.8,0.2
								c0.4,0.1,0.6,0,0.8,0c0.1,0,0.1,0,0.2,0l0.6-0.1L225.5,139.2z"/>
							<path fill="#0B1439" d="M198.3,149.1L198.3,149.1C198.3,149.1,198.3,149.1,198.3,149.1z"/>
							<path fill="#0B1439" d="M198.3,149L198.3,149C198.3,149,198.4,148.9,198.3,149z"/>
							<path fill="#0B1439" d="M219,141.1c0,0,0,0.1-0.1,0.1l0.2-0.1C219.1,141.1,219,141.1,219,141.1z"/>
							<path fill="#0B1439" d="M219.5,140.8l0.6-0.1l0.2-0.1C220.1,140.7,219.8,140.7,219.5,140.8z"/>
							<path fill="#0B1439" d="M212.9,143c-1.2,0.4,0.2-0.2-0.3-0.1c-0.3,0.1-0.4,0.2-0.6,0.3c0.9-0.4-0.1,0.2,0.9-0.1
								c-0.1,0.1-0.6,0.3-1,0.4c-0.4,0,0.3-0.2,0.3-0.3c-0.4,0.1-0.3,0.1-0.4,0.2c-0.6,0.2-1.2,0.6-1.6,0.6
								c-0.4,0.2-0.4,0.2-0.6,0.4c0,0.1,0.6-0.2,0.8-0.2c0,0-0.1,0-0.1,0l0.4-0.1c-0.4,0.1,0-0.1,0.2-0.2c0.1-0.1,0.4-0.2,0.4-0.1
								l-0.2,0.1c0.3-0.1,0.5-0.3,0.8-0.3c0,0-0.1,0.1-0.1,0.1c0.3-0.2,0.6-0.3,1-0.5l-0.2,0.2c0.3-0.3,1.2-0.5,1.8-0.6
								c-0.1,0-0.2,0-0.1,0c0.3-0.1,0.6-0.1,0.5,0c0.3-0.2,1.3-0.3,1.7-0.5c0,0,0.5-0.3,1-0.5c0.5-0.2,1-0.5,1-0.5
								c-0.1,0-0.2,0.1-0.3,0.1c-0.2-0.1-0.3,0,0-0.2c-0.3,0.1-0.2,0.2-0.7,0.3c0.2-0.1,0.2-0.2-0.3-0.1c-1.2,0.4-2,0.8-3,1.3
								c-0.1-0.1-0.9,0.2-1.4,0.3c0.1-0.1,0.4-0.3,0.8-0.4c-0.2,0.1-0.6,0.2-0.8,0.2L212.9,143z"/>
							<path fill="#0B1439" d="M215.6,142C215.5,142,215.5,142,215.6,142C215.5,142,215.5,142,215.6,142z"/>
							<path fill="#0B1439" d="M213.8,142.6C213.8,142.6,213.8,142.6,213.8,142.6l-0.1,0C213.8,142.6,213.8,142.6,213.8,142.6z"/>
							<path fill="#0B1439" d="M218.7,141c0.1,0,0.1,0,0.2-0.1L218.7,141C218.6,140.9,218.6,141,218.7,141z"/>
							<path fill="#0B1439" d="M218.9,141.1L218.9,141.1C218.9,141.1,218.9,141.1,218.9,141.1C219,141.1,219,141.1,218.9,141.1z"/>
							<path fill="#0B1439" d="M208.2,144.1l-0.1,0.1C208.1,144.2,208.2,144.2,208.2,144.1z"/>
							<path fill="#0B1439" d="M211.5,143.4c0.4-0.1,0-0.1,0.6-0.3l-0.2,0.1c0.4-0.2,1.1-0.4,1.6-0.6c0,0.1,0.3,0,0.3,0
								c0.3-0.1,0.7-0.2,0.8-0.3c0.2,0,0.5-0.2,0.8-0.2c-0.1,0,0.4-0.2-0.3,0c0.1,0,0,0,0.1,0c-0.4,0.1-0.6,0.2-0.9,0.3
								c-0.2,0,0.3-0.2,0.1-0.1c-0.4,0.2-1.4,0.4-1.4,0.5c-0.3,0.1-0.4,0.1-0.5,0.1c-0.5,0.3-1.9,0.6-1.8,0.8
								c0.2-0.1,0.5-0.2,0.7-0.3L211.5,143.4z"/>
							<path fill="#0B1439" d="M217.9,141.1C217.9,141.1,217.9,141.1,217.9,141.1C217.9,141.1,217.9,141.1,217.9,141.1z"/>
							<path fill="#0B1439" d="M223.4,141.2l-0.2,0.1c-1,0.1-1.4,0-2.2,0.1c-0.1,0,0,0,0.1,0c-0.6,0.1-1.5,0.1-2,0.3
								c-0.2,0-0.7,0.1-0.5,0c-0.1,0-0.2,0.1-0.3,0.1c0,0,0.2-0.1,0.2-0.1c-0.1,0-0.1,0-0.1,0c0.1-0.1-0.2-0.1,0.5-0.3
								c0.3,0.1-0.5,0.1-0.3,0.2c0.2,0,0.2-0.1,0.2-0.1c0.3,0,0.3,0,0.3,0c0.1-0.1,0.5-0.1,0.6-0.1c0.6-0.1,0,0.1,0.3,0.1l0.2-0.1
								l0.6,0c0.9-0.1-0.1-0.2,0.9-0.4c-0.1,0.1,0.3,0.2,0.8,0.2c-0.3,0-0.8,0.1-1.2,0.1c0.5,0-0.7,0.1-0.4,0.2
								c0.2-0.1,0.7-0.1,1-0.1l-0.1,0c0.4,0,0.6-0.1,1.1-0.1c0.2,0,0.2,0,0.2,0.1C223.2,141.2,223.4,141.1,223.4,141.2z
								 M222.9,141.2l-0.3,0C222.6,141.2,222.7,141.2,222.9,141.2z"/>
							<path fill="#0B1439" d="M259.2,160.3C259.2,160.3,259.3,160.3,259.2,160.3C259.3,160.3,259.2,160.3,259.2,160.3z"/>
							<path fill="#0B1439" d="M235.4,142.6l0.2,0.1C235.5,142.6,235.4,142.6,235.4,142.6z"/>
							<path fill="#0B1439" d="M239.4,144.6l0.2,0.1C239.5,144.7,239.5,144.6,239.4,144.6z"/>
							<polygon fill="#0B1439" points="257.4,158.8 257.4,158.8 257.4,158.8 							"/>
							<path fill="#0B1439" d="M246.2,150c0,0,0.1,0.1,0.1,0.1C246.3,150.1,246.3,150.1,246.2,150z"/>
							<polygon fill="#0B1439" points="239.3,144.6 239.4,144.6 239.4,144.6 							"/>
							<path fill="#0B1439" d="M233.8,141.4c0,0-0.1,0-0.1,0C233.7,141.4,233.7,141.4,233.8,141.4z"/>
							<path fill="#0B1439" d="M233.9,141.8l-0.1,0L233.9,141.8z"/>
							<path fill="#0B1439" d="M227.4,139.7l-0.3,0C227.2,139.7,227.3,139.7,227.4,139.7z"/>
							<path fill="#0B1439" d="M233.3,141.5L233.3,141.5C233.3,141.5,233.3,141.5,233.3,141.5z"/>
							<polygon fill="#0B1439" points="260.3,161.6 260.3,161.6 260.2,161.6 							"/>
							<path fill="#0B1439" d="M260.9,161.8l0.2,0.1C261,161.9,260.9,161.9,260.9,161.8z"/>
							<path fill="#0B1439" d="M249.1,152.4c0,0.1,0.2,0.2,0.1,0.1C249.3,152.6,249.3,152.6,249.1,152.4z"/>
							<path fill="#0B1439" d="M258.8,161.4c0,0,0.1,0,0.1,0.1C258.8,161.4,258.8,161.4,258.8,161.4z"/>
							<path fill="#0B1439" d="M258.9,161.5l0.1,0.1C259,161.5,259,161.5,258.9,161.5z"/>
							<path fill="#0B1439" d="M247.1,152.2C247,152.2,247,152.2,247.1,152.2C247,152.2,247,152.2,247.1,152.2z"/>
							<path fill="#0B1439" d="M261.2,162.1c0.1,0,0.9,0.6,0.2,0c0.1-0.1,0.4,0.3,0.6,0.4c-0.1-0.1,0.1,0,0.1-0.1
								c-0.1-0.1-0.2-0.1-0.4-0.2c0-0.1,0.2,0.1,0.4,0.2c-0.2-0.2,0.3,0.2,0-0.1c-0.7-0.5-1.1-0.8-1.7-1c0.4,0.3,0.8,0.6,1.1,0.8
								l-0.2,0c-0.3-0.3-0.5-0.4-0.9-0.7L261.2,162.1c0.4,0.2,0.1,0.1-0.1-0.1C261.1,162,261.2,162.1,261.2,162.1z"/>
							<polygon fill="#0B1439" points="260.3,162.3 260.3,162.3 260.3,162.3 							"/>
							<path fill="#0B1439" d="M227.2,141.3L227.2,141.3C227.2,141.3,227.2,141.3,227.2,141.3z"/>
							<path fill="#0B1439" d="M260.1,161.6L260.1,161.6C260.1,161.6,260.1,161.6,260.1,161.6z"/>
							<path fill="#0B1439" d="M229.1,141.7L229.1,141.7C229.1,141.7,229.1,141.7,229.1,141.7z"/>
							<path fill="#0B1439" d="M230,140.1C230,140.1,230,140.1,230,140.1C230,140.1,230,140.1,230,140.1z"/>
							<path fill="#0B1439" d="M229.1,141.7C229.1,141.7,229.1,141.7,229.1,141.7C229.1,141.7,229.1,141.7,229.1,141.7z"/>
							<path fill="#0B1439" d="M237.8,145.3C237.8,145.3,237.8,145.3,237.8,145.3C237.8,145.3,237.8,145.3,237.8,145.3z"/>
							<path fill="#0B1439" d="M236.3,144.2L236.3,144.2L236.3,144.2z"/>
							<path fill="#0B1439" d="M248.9,151.8c-0.1-0.1-0.1-0.1-0.2-0.1C248.8,151.8,248.9,151.8,248.9,151.8z"/>
							<path fill="#0B1439" d="M229.1,141.7C229.1,141.7,229,141.7,229.1,141.7C229,141.7,229.1,141.7,229.1,141.7z"/>
							<polygon fill="#0B1439" points="240.4,146.7 240.4,146.7 240.4,146.7 							"/>
							<path fill="#0B1439" d="M241.2,147.4C241.2,147.4,241.2,147.4,241.2,147.4c0.2,0.2,0.7,0.6,0.9,0.6c-0.1-0.1-0.6-0.5-0.5-0.5
								c-0.2-0.1-0.5-0.4-0.6-0.5c0.3,0.3,0,0.1-0.2-0.1c-0.2-0.2,0.1,0-0.1-0.2l-0.5-0.3l0.4,0.3l-0.2,0c0,0,0,0,0,0
								C241.2,147.2,240.5,146.9,241.2,147.4z"/>
							<path fill="#0B1439" d="M241.2,147.4c0,0-0.1-0.1-0.1-0.1C241.1,147.4,241.1,147.4,241.2,147.4z"/>
							<path fill="#0B1439" d="M243.9,149.6c0,0,0.1,0,0.1,0.1C244,149.6,243.9,149.6,243.9,149.6z"/>
							<path fill="#0B1439" d="M220.7,140.6c0,0,0.5,0,0.5,0L220.7,140.6L220.7,140.6z"/>
							<path fill="#0B1439" d="M251.8,155l-0.1-0.1l0,0C251.7,154.9,251.8,155,251.8,155z"/>
							<path fill="#0B1439" d="M241.8,147.6c-0.1,0-0.1-0.1-0.1-0.1C241.7,147.5,241.7,147.5,241.8,147.6z"/>
							<path fill="#0B1439" d="M251.7,155.2c0,0.1,0.1,0.1,0.1,0.2c0.1,0.1,0.2,0.1,0.3,0.2C252,155.4,251.9,155.3,251.7,155.2z"/>
							<path fill="#0B1439" d="M252.2,155.5L252.2,155.5L252.2,155.5z"/>
							<path fill="#0B1439" d="M220.4,140.6l-0.1,0L220.4,140.6l-0.4,0c0,0-0.1,0-0.1,0c0,0,0,0,0,0l-0.1,0
								c-0.3,0.1-0.9,0.2-1.1,0.3c-0.3,0.1-0.6,0.1-0.8,0.2c0.2,0,0.4-0.1,0.3-0.1c-0.4,0-0.6-0.1-1.2,0.2l0.4-0.1
								c0,0-0.2,0.1-0.4,0.1c-0.2,0.1-0.4,0.2-0.4,0.2c-0.3,0,0.4-0.2,0.5-0.2c-0.6,0.2-1.2,0.2-1.5,0.4c-0.1-0.1-0.2-0.2-0.6-0.1
								c0.3,0-0.2,0.1,0,0.1c-0.1,0.1-0.5,0.1-0.5,0.2l0,0c-0.7,0.1-0.9,0.3-1.2,0.5c-0.9,0.3-1.2,0.4-1.9,0.6c0,0-0.3-0.1-0.6,0
								c-0.1,0.1-0.7,0.4-0.7,0.5c0.5-0.2,0.4-0.2,0.7-0.4c0.3,0,0.1,0.1,0.4,0c-0.3,0.1-1.2,0.5-1.5,0.6l0.1-0.1
								c-0.5,0.1-0.7,0-1.4,0.4l-0.3,0.2c0,0,0,0,0,0c-0.6,0.3-0.5,0.1-1.1,0.5c0,0,0,0,0.1-0.1c-0.4,0.1-0.7,0.4-1,0.6
								c-0.2,0,0-0.1,0.1-0.2c-0.7,0.3-1.3,0.8-1.7,1.1l-0.4,0.2c0.2-0.2,0.5-0.4,0.4-0.4c-0.2,0.1-0.2,0.1-0.5,0.3
								c0-0.1,0.1-0.2,0.3-0.3c-0.7,0.3-0.1,0.2-0.6,0.3c-0.2,0.1-0.3,0.2-0.3,0.3l-0.4,0.2c0,0.1-0.5,0.4-0.8,0.5
								c0,0,0.3-0.1,0.4-0.2c0,0.1-0.3,0.3-0.5,0.4c-0.2-0.1-1.3,0.8-1.2,0.5c-0.9,0.6-2.1,1.4-2.7,1.9c-0.2,0.1-0.6,0.4-0.4,0.1
								c-0.7,0.5-1,0.9-1.7,1.3c-0.1,0,0.3-0.2,0.3-0.2c-0.4,0.4-0.9,0.5-1.5,1.1c0.1-0.1,0.1-0.1,0.1-0.2c0,0-0.3,0.3-0.4,0.4
								c-0.1,0.1,0.1-0.1,0.1-0.1c-1.4,1-2.2,1.9-3.5,3c0.4-0.3,0.4-0.5,0.4-0.5l-0.4,0.3c-0.1,0.2-0.4,0.4-0.6,0.6
								c0,0-0.2,0.1-0.1,0c-0.7,0.5-0.9,1.1-1.8,1.8l0.8-1.1l-0.3,0.2l0.4-0.5c-0.3,0.2-0.4,0.5-0.5,0.5c0-0.1,0.2-0.2,0.2-0.2
								c-0.3,0.2-0.3,0.3-0.4,0.5c0.4-0.6,1.4-1.5,1.9-2c0.1-0.1,0,0.1-0.1,0.1c0.2-0.2,0.4-0.3,0.6-0.5c0.1-0.2-0.2,0.1-0.3,0.2
								c0-0.1,0.1-0.1,0.2-0.3c0.1,0,0.9-0.7,1.1-0.8c0.8-0.7-0.3,0,0.6-0.7l0.3-0.1c0.4-0.4,1-1,1.6-1.4l-0.1,0.1
								c-0.1,0.1,0.1,0,0.2,0c0.4-0.3,0.8-0.6,1.1-0.8c0.4-0.4,1.2-1.1,1.7-1.5c0.2,0-0.7,0.6-0.9,0.8l0.5-0.4
								c-0.3,0.2-0.4,0.3-0.6,0.5c0.5-0.3,0.6-0.5,1-0.8c0,0,0.1,0,0.2-0.1l0-0.1c0,0,0,0,0.1,0l0.7-0.5c-0.2,0.1-0.2,0-0.4,0.2
								c0.1,0-0.1,0.1-0.3,0.2c0.1-0.2-0.2,0.1-0.2,0.1c0.4-0.3,0.9-0.6,1.1-0.8l0.1,0c0.4-0.2,0.8-0.5,1.1-0.7l-0.1,0.1
								c0.5-0.3,0.9-0.6,1.4-0.8c0.4-0.3,0.9-0.7,1.2-0.9c0.1-0.2,1.3-0.6,1.7-1c0,0-0.3,0.2-0.5,0.4c0.3-0.2,0.5-0.4,0.7-0.4
								c-0.7,0.4,0.1,0-0.2,0.2c0.3-0.2,0.7-0.4,0.8-0.5c-0.6,0.3,0.1-0.2-0.4,0.1c0.4-0.3,1-0.6,1.5-0.8c0,0,0.1,0,0.3-0.1l0.1-0.1
								c0.3-0.1-0.5,0.3,0.1,0.1c0.5-0.3,1.6-0.6,1.7-0.9c0.4-0.1-0.7,0.4-0.1,0.2c-0.3,0.2-0.8,0.4-0.9,0.5c0.3-0.2,0.2,0,0.4-0.1
								l0.4-0.2l-0.1,0c0.6-0.4,1.6-0.7,2.5-1.1c0.7-0.3,1.1-0.6,2-0.9c-0.2,0.1,0.7-0.2,0.2,0.1c0.4-0.1,0.8-0.2,0.8-0.3
								c-0.4,0.1-0.1,0-0.4,0.1c0.2-0.1,0.7-0.2,0.8-0.3c-0.1,0-0.1,0-0.1,0c0.4-0.1,0.2-0.1,0.5-0.2c0.1,0,0.7-0.1,1-0.2l0.4-0.2
								c-0.2,0.1,0.4-0.1,0.5,0c0.3-0.1,0.5-0.2,1-0.3c-0.2,0.1,0.4,0,0.4,0c0.8-0.1,1.3-0.4,2-0.4c0,0-0.2,0.1,0.1,0.1
								c0.2,0,0.5-0.1,0.7-0.1l0,0l0,0c0.1,0,0.1,0,0.1,0c0.3-0.1,0.5-0.2,1.1-0.2c0-0.1-0.6,0-0.8,0l-0.2,0.1
								c-0.2-0.1-0.6,0.1-0.7,0.1c0.2-0.1,0.5-0.2,0.9-0.2c0.4,0,0.8-0.1,1.2-0.1c-0.4-0.1-1.3-0.1-2,0l0.3,0l-0.4,0l0.4,0
								c-0.4,0-0.7,0.1-1,0.1c0.4,0,0.6,0,0.3,0c-0.4,0-0.4,0.1-0.8,0.1c0.2,0,0.4,0,0.3,0c-0.7,0-0.8,0.1-1.4,0.1
								c0.1,0.1-0.7,0.1-0.8,0.3l0.3,0l-0.6,0.2c-0.6,0,0.4-0.2-0.4-0.1c-0.7,0.2-0.7,0.3-1.3,0.4c0.2-0.1,0.6-0.3,1.1-0.4l-0.3,0
								c0.1-0.1,0.8-0.2,1.1-0.3c-0.5,0.2,0.3,0,0.5,0c0-0.1-0.3,0,0.1-0.1c-0.4,0.1-0.4,0.1-0.9,0.1c1.1-0.2,0.9-0.4,1.9-0.5
								c-0.4,0.1,0.2,0.1,0.2,0.1c0.2,0,0.6-0.1,0.8-0.1l-0.2-0.1c0.6-0.1,0.8,0.1,1.4-0.1c0.1-0.1-0.6,0-0.4,0c0.9-0.2,1.2,0,2,0.1
								c0,0,0-0.1,0.3-0.2c-0.1,0.1,0.1,0.1-0.2,0.1c0.3,0,0.6,0,0.8-0.1c-0.5,0,0.2-0.1,0.3-0.1c0.3,0-0.1,0.1-0.3,0.1
								c0.2,0,0.5,0.1,0.6,0c0,0.1-0.6,0.1-1,0.2l0.3,0c-0.2,0-0.2,0-0.5,0c0.3,0,0.2,0.1,0.2,0.1c0,0,0,0,0,0c-0.2,0-0.4,0-0.3,0
								c-0.2,0.1,0.3,0,0.5,0.1c0.1,0,0.2,0,0.3,0l1.2-0.2c0.5,0,0.7,0,1.1,0.1l0.1-0.1c0.4,0.1,0.8,0.1,0.5,0.2c0,0-0.1,0-0.2,0
								c0,0,0,0-0.1,0l0,0c0.5,0,0.7,0,0.8,0.1c-0.8,0-0.1,0.1-0.2,0.2l0.8,0.1c-0.5-0.1,0-0.1,0.2-0.1c0,0.1,0.6,0.1,0.9,0.2l0,0
								c0.2,0.1,0.7,0.2,1,0.2c0,0,0.4-0.1,0.6-0.1c-0.5-0.2-0.2-0.1-0.2-0.2c0.1,0,0.2,0,0.2,0c0.1,0-0.1-0.1-0.1-0.1
								c-0.6-0.1-1.2-0.2-1.4-0.2c0.2,0.1,0.3,0,0.5,0.1c-0.3,0-0.7-0.1-1.1-0.2l-0.1-0.1l-0.5,0c0.2,0,0.1-0.1,0.6,0
								c-0.1-0.1-0.5-0.1-0.8-0.1l-0.2,0.1c0.1,0-0.6-0.1-0.1-0.1l0.8,0l-0.2-0.1c0,0,0.7,0.1,0.7,0.1l-0.2,0
								c1.1,0.2,0.3,0.2,1.4,0.3c0.4,0,0.7,0,1.3,0.2c-0.5-0.1-0.1,0.1-0.3,0.1c0.5,0.2,0.6,0.2,0.9,0.2c0.1,0.1,0.2,0.2-0.2,0
								c-0.1,0.1,0.6,0.1,0.6,0.3c0.7,0.2,1,0.2,1.3,0.3c0.3,0.1,0.7,0.1,1.4,0.5l-0.1,0c1,0.4,1.5,0.8,2.4,1.2l0.6,0.5
								c-0.2-0.1-0.6-0.3-0.4-0.1c-0.2-0.3-0.6-0.4-1-0.7c-0.1,0,0.1,0.1,0.1,0.2c-0.2-0.1-0.3-0.2-0.6-0.4c0,0,0.3,0.2,0.1,0.1
								l-0.4-0.3c-0.5-0.2-0.3,0-0.9-0.3c0.1,0,0.4,0,0.7,0.1c-0.3-0.2,0.4,0.2,0.2,0c-0.4-0.1-0.6-0.3-1.2-0.5c0.1,0,0.1,0,0.2,0.1
								l-0.8-0.4c0.2,0.1-0.7-0.2-0.7-0.1c0.9,0.4,0.6,0.2,1.6,0.7c-0.3-0.1-0.7-0.2-0.9-0.2c0,0,0,0-0.1,0c-0.2,0,0,0.1-0.1,0.2
								c0.5,0.1,0.8,0.3,1.3,0.5c0.1,0-0.3-0.2-0.5-0.3l0.5,0.1c0,0-0.1,0-0.1,0l1.1,0.6c-0.2-0.1-0.3-0.1-0.4-0.1
								c0.1,0.1,0.3,0.2,0.4,0.3c0-0.1,0-0.1,0.2,0c0.4,0.2,0.6,0.4,0.8,0.5c0.2,0.2,0.3,0.3,0.4,0.4c0,0,0.1,0,0.1,0
								c-0.1-0.1,0.6,0.2,0.8,0.3c-0.1,0.1,0.3,0.3,0.5,0.4c0.2,0,0.1-0.2-0.1-0.4c-0.5-0.2-0.3-0.1-0.6-0.1l-0.8-0.4l0.2,0
								c-0.4-0.3-0.8-0.4-0.7-0.5c0.2,0,0.5,0.3,0.8,0.4l-0.2-0.2c0.5,0.2,0.2,0.2,0.7,0.5c-0.2-0.2,0.1,0,0.3,0.1
								c-0.2-0.2-0.9-0.6-0.7-0.6c0.3,0.1,0.8,0.7,1.3,0.9l0,0c0.6,0.4,0.7,0.5,1,0.5c0.2,0.2,0.5,0.4,0.7,0.5l0,0l0.3,0.2
								c-0.2-0.1-0.4-0.3-0.7-0.5l0,0.1c-0.3-0.3-0.6-0.4-0.8-0.5c0.4,0.2,1,0.8,1.2,0.7l0.2,0.2l0.1,0.1c0.1,0.2-0.1,0.1-0.4-0.1
								c0-0.1-0.1-0.1,0-0.1c-0.2-0.1-0.3-0.1-0.7-0.4l0.2,0.1c-0.4-0.3-0.9-0.6-1.1-0.7c0.7,0.5,1.3,1,1.9,1.4c0.3,0,0.6,0.1,0.7,0
								c0.4,0.3,1,0.7,1.3,1h-0.1c0.2,0.1,0.3,0.3,0.5,0.3c0.2,0.2-0.2,0-0.1,0.1l0.6,0.4c-0.1,0-0.6-0.3-0.8-0.5
								c0,0,0.1,0.1,0.1,0.1c-0.3-0.2-0.8-0.5-0.9-0.7c-0.1-0.1,0.3,0.1-0.1-0.2c-0.3-0.3-0.4-0.3-0.5-0.3c0,0,0.4,0.4,0.2,0.3
								c0.2,0.2,0.4,0.2,0.6,0.5c-0.2-0.2-0.6-0.3-0.7-0.5c-0.5-0.3-0.6-0.1-0.3,0.1c0-0.1,0.9,0.6,0.3,0.1c0.3,0.1,0.8,0.5,1.2,0.7
								l0,0l0.5,0.3c-0.1,0-0.2-0.1-0.2-0.1l0.7,0.4c-0.4-0.2,0.2,0.2,0.3,0.3c0.1,0,0.4,0.1,0.2-0.1c-0.2-0.2-0.2-0.1-0.4-0.3
								l0.4,0.2l0,0l0.2,0.1c0.4,0.3-0.3,0,0.3,0.4l0-0.1c0.7,0.5,1.5,1.2,2,1.6c-0.2,0-0.3,0-0.1,0.2c-0.2-0.2-0.6-0.5-0.9-0.7
								c0-0.1,0.4,0.2,0.7,0.4c-0.1-0.3-0.9-0.5-0.8-0.7c-0.8-0.7-0.7-0.3-1.3-0.9c-0.1,0.1-0.2-0.1-0.3-0.1c0.1,0.3,0.9,0.7,1.3,1
								c0,0-0.1-0.1-0.2-0.1c0.3,0.3,0.4,0.3,0.7,0.5l0,0c0.4,0.2,0.2,0.2,0.4,0.4c0.1,0.1,0.4,0.3,0.4,0.2l0.4,0.4l0-0.1
								c0.2,0.2,0.3,0.3,0.5,0.4l0.1-0.1l-0.6-0.5c0.3,0.2,0.1,0,0.5,0.2c-0.4-0.2,0.2,0.2,0.2,0.3l0.3,0.1l-0.1,0
								c0.2,0.2,0.2,0.1,0.5,0.3c-0.2-0.2-0.4-0.4-0.7-0.6c0.3,0.1,0.8,0.5,0.9,0.5c0.3,0.2,0.4,0.3,0.6,0.5c-0.5-0.3,0,0.3-0.9-0.4
								c0,0,0.1,0.1,0.1,0.1c-0.1-0.2-0.5-0.4-0.8-0.5c0,0.1-0.2-0.1,0.1,0.2c-0.1-0.1,0.4,0.1,0.7,0.4l-0.1,0.1l0.5,0.4l0,0
								c0.1,0.2,0.5,0.4,0.8,0.7c0.3,0.1,1.2,0.9,0.8,0.5c0.3,0.3,0.6,0.4,0.9,0.6l-0.4-0.3c0.5,0.3,0.4,0.2,0.8,0.4
								c0,0.1,0.1,0.1,0,0.1c0.6,0.5,1.5,1.2,1.9,1.4c0.4,0.4,0.4,0.5,1.1,1c0.1,0.1,0-0.2,0.4,0.2c0,0-0.5-0.2,0,0.1
								c0.4,0.2,0.7,0.6,1.2,0.9c0.2,0.2,0.6,0.5,0.5,0.5c-0.3-0.3-0.9-0.7-1-0.7c0.1,0-0.2-0.2,0.1-0.1c-0.5-0.5-0.4-0.2-0.8-0.7
								c-0.1,0,0.2,0.3,0.3,0.3c-0.1,0.1-1-0.7-0.6-0.3c0.5,0.4,0.8,0.4,1.2,0.8c-0.2-0.1-0.5-0.4-0.8-0.4l0.3,0.3l0.3,0.2h0
								c0.6,0.6,0.7,0.4,1.3,0.8c-0.3-0.3,0.2-0.1,0-0.3c0.4,0.3,0.7,0.5,0.6,0.6c-0.8-0.5-0.1,0.1-0.8-0.4c0.1,0.1-0.3,0,0.1,0.3
								c0.5,0.3-0.1-0.2,0.4,0.2c0,0,0,0.1,0,0.1c0.2,0.1,0.2,0.2,0.5,0.4l-0.1,0c0.3,0.3,0.4,0.2,0.6,0.5c-0.1-0.1,0.2,0.1,0.4,0.2
								c-0.3-0.2-0.3-0.4-0.9-0.9c-0.1,0-0.1,0.1-0.3-0.1l0.3,0.3c-0.1,0-0.1-0.1-0.2-0.1l-0.3-0.3c0.4,0.3,0.3,0.1,0.5,0.2
								c0.4,0.3,0.3,0.2,0.6,0.4c-0.1,0.1,0.6,0.7,1.1,1.1c-0.1-0.1-0.2-0.1-0.2-0.2c-0.4-0.2,0.2,0.2,0.2,0.3l0.3,0.1
								c0,0-0.1-0.1,0,0c0.3,0.2,0.4,0.2,0.7,0.4c0,0.1-0.3-0.1-0.1,0.1c0,0.1,0.2,0.3,0.6,0.6c0,0,0.2,0.1,0.3,0.2l-0.1,0l0.2,0.3
								c-0.3-0.1-0.5-0.4-0.7-0.5l-0.1,0c-0.2-0.1-0.5-0.3-0.6-0.4c0.3,0.2,0.3,0.3,0.7,0.5c0,0.1-0.2-0.1-0.3-0.1l0.1,0
								c-0.3-0.4-0.6-0.4-1.1-0.8c-0.1-0.1,0,0,0,0c-0.4-0.2-0.7-0.6-1.2-0.8l0.1,0.1c-0.3-0.2-0.8-0.5-1.4-0.8l0,0
								c0,0.1-0.1-0.1-0.2-0.2h0c-0.3-0.2-0.5-0.3-0.7-0.5c0.1,0.1,0.1,0.1,0.2,0.2c0.1,0,0.5,0.4,0.5,0.3c0.2,0.2,0.6,0.4,0.7,0.6
								c-0.2-0.3,0.2,0.1,0.3,0.1c0.1,0.1,0.4,0.3,0.3,0.4c0,0.1-0.1-0.1-0.3-0.2c-0.3-0.2,0.5,0.5,0.1,0.2c0.5,0.3,1.1,0.8,1.6,1.2
								l-0.3-0.2c0.2,0.2,0.7,0.6,0.7,0.6c-0.2-0.1-0.3-0.3-0.6-0.4c-0.1,0.1,0.5,0.4,0.5,0.4l0.7,0.4l-0.3-0.2
								c0.2,0.1,0.7,0.6,1.1,0.9c-0.3-0.1-0.6-0.5-1-0.8c-0.3-0.2,0.1,0.2-0.2,0c0.1,0.1,0.2,0.2,0.4,0.3l0.1,0.1
								c-0.3-0.1-0.9-0.6-1.3-0.8c0,0,0.1,0,0.1,0c-0.3-0.3-0.6-0.5-0.9-0.7c0.1,0.1,0.2,0.2,0.3,0.2c0,0-0.3-0.2-0.4-0.2
								c0.3,0.2,0,0.1,0.2,0.2c-0.2-0.1-0.3-0.2-0.5-0.4c-0.1-0.1,0.1,0,0.1,0c-0.2-0.1-0.3-0.3-0.6-0.5c0.4,0.4-0.2,0-0.3-0.1
								l0.1,0.1c-0.2-0.1-0.3-0.1-0.3-0.3c0.2,0.1,0.3,0.3,0.3,0.2c-0.1-0.1-0.2-0.2-0.4-0.3l0.1,0.1l-0.6-0.4
								c-0.1,0-0.3-0.1-0.4-0.1c-0.1-0.1-0.3-0.3-0.5-0.4l0.1,0c-0.2-0.2-0.8-0.6-0.9-0.7c-0.2-0.2,1.4,0.8,0.1-0.2
								c-0.5-0.4-0.4-0.1-0.7-0.3c0,0,0,0,0,0c-0.2-0.2-0.3-0.1-0.4-0.3c0.1,0.1,0.3,0.3,0.4,0.3c-0.1,0-0.4-0.4-0.6-0.4
								c0.3,0.1-0.4-0.4-0.2-0.3c-0.4-0.4-0.9-0.7-1.1-0.8c-0.2-0.3-0.5-0.4-0.9-0.8c0.1,0.1,0.2,0.1,0.3,0.2c0.3,0.1-0.5-0.4,0-0.1
								c-0.1-0.1,0,0,0.1,0.1c0.2,0.1,0.3,0.2,0.3,0.1l-0.3-0.4l0.1,0.1l-0.5-0.5c0,0,0,0.1,0,0.1c-0.7-0.5-1.5-1.1-2.1-1.5
								c-0.2,0.1-1.5-1-2.1-1.3c0.2,0,0.3,0,0.2-0.1c0.1,0.1,0.4,0.2,0.6,0.4c0,0.1,0.3,0.3,0.1,0.2c0.7,0.5,0-0.1,0.2-0.1
								c-0.8-0.5-1.3-0.8-1.8-1.1l0,0l-0.4-0.2c0.3,0.2,0.2,0.3-0.2,0l0,0c-0.2-0.2-0.7-0.5-1-0.7l-0.3-0.1
								c-0.3-0.3-0.3-0.4-0.3-0.5c-0.5-0.4-0.9-0.5-1.3-0.8c-0.1-0.2-0.9-0.8-0.5-0.5c-0.5-0.3-0.6,0-1.3-0.7l0.2,0.1
								c-0.8-0.6-2-1.3-2.3-1.6c0.4,0.1-0.9-0.9-0.9-1.1c0,0.1-0.3-0.1-0.3-0.1c-0.1-0.1-0.2-0.1-0.3-0.2c0.3,0.2-0.3,0,0.3,0.3
								c-0.4-0.1-0.8-0.3-1.5-0.7l0.1-0.1l0.5,0.4c0-0.1,0.2,0.1,0.4,0.1c-0.9-0.7,0.2-0.1-0.8-0.7c-0.1,0,0,0-0.3-0.1
								c0.1,0.1,0.2,0,0-0.1l-0.2-0.1c-0.3-0.3,0.6,0.3,0.4,0c0.4,0.2,1.1,0.6,1,0.4c-0.6-0.4-0.7-0.2-1.3-0.7l0-0.1
								c-0.3-0.1-0.3-0.1-0.5-0.1c0,0-0.1-0.1-0.2-0.2c-0.5-0.1-0.7-0.3-1.2-0.3c1,0.5,0.8,0.5,1.9,1c-0.2-0.1-0.9-0.4-1-0.4l0-0.1
								c-0.4-0.1-0.7-0.3-1.1-0.5l0.3,0.1c-0.6-0.3-0.9-0.5-1.4-0.6c0.2,0.1,0.3,0.1,0.4,0.2c-0.3-0.1-0.7-0.3-1-0.4
								c0,0-0.7-0.2-0.7-0.1c0,0-0.4-0.2-0.2-0.2c-0.5-0.2-0.8-0.2-1-0.2c-0.5-0.2,0.5,0.1,0.5,0c-0.3-0.1-0.7-0.2-1-0.3
								c-0.3-0.1-0.6-0.1-0.8-0.1c0.1,0,0.2,0.1,0.2,0.1c0,0-0.3-0.1-0.5-0.1l-0.1,0c-0.3-0.1-0.2-0.1,0-0.1c-0.3-0.1-0.6,0-0.8-0.2
								c0.5,0,1,0.2,1.2,0.2c-0.9-0.1-0.9-0.4-2.1-0.5c0,0,0.2,0,0-0.1c-0.5,0-0.2,0.1-0.3,0.1c0.4,0,0.6,0.1,0.8,0.2l-0.1,0
								c0,0-0.3-0.1-0.3-0.1l-0.1,0.1c0-0.1-0.4-0.2-0.7-0.2c0.3,0.1,0.2,0.1,0.3,0.2c-0.5,0.1-0.5-0.2-1-0.1c0,0,0.5,0,0.1-0.1
								c-0.3,0-0.3,0.1-0.5,0.1c0.2-0.1,0.2-0.1,0.5-0.2c0.6,0,0.2,0,0.8,0.1l-0.5-0.1c0.5,0,0.4,0,0.4-0.1c-0.8-0.2-0.6,0-1.2,0
								c-0.3,0,0.5,0,0.1,0.1c-0.5,0-0.1,0-0.7,0.1l0.1,0c-0.2-0.1-0.3,0-0.5,0c-0.2,0,0.2,0.3-0.6,0.3c0,0,0.1,0,0.1,0
								c0,0,0.2-0.2,0.4-0.3c0.2-0.2,0.4-0.3,0.4-0.3c-0.9-0.1-2,0-3,0c-0.3-0.1,0.8-0.1,0.7-0.2l0.5,0c0,0.1-1,0.1-0.6,0.1
								c0.9-0.1,1.2-0.1,2.1-0.1c-0.3-0.2-1.1,0-1.6-0.1c0.2,0,0.4,0,0.6,0c-0.5,0-1,0-1.6,0l-0.1,0c0.4,0,0.7,0,0.7,0
								c-0.5,0-0.9,0.1-1,0.2l0.1,0l-0.2,0L220.4,140.6z M191.4,155C191.4,154.9,191.4,154.9,191.4,155
								C191.4,154.9,191.4,154.9,191.4,155z M230.3,141c-0.6-0.2-1.3-0.3-2-0.5c1.1,0.4,1.9,0.7,0,0.3l-0.1,0
								c0.2,0.1,0.7,0.2,1.1,0.2c0.2,0,0.5,0,0.9,0c0.3,0,0.6,0,0.6,0C230.6,141,230.4,141,230.3,141L230.3,141z M230.7,141.5
								c0.4,0.1,0.3,0.1,0.4,0L230.7,141.5C230.7,141.4,230.7,141.5,230.7,141.5z M231,141.5C231,141.5,231,141.4,231,141.5
								L231,141.5z M223.7,140.3C223.7,140.3,223.7,140.3,223.7,140.3c-0.1,0-0.1,0-0.2,0C223.5,140.3,223.6,140.3,223.7,140.3z
								 M224.5,140.4L224.5,140.4c0-0.1-0.1-0.1-0.2-0.1C224.3,140.4,224.4,140.4,224.5,140.4z M226.9,140.8c0.2-0.1,0.7,0,0.7-0.1
								c0,0-0.1,0-0.2-0.1c-0.1,0-0.3,0-0.4-0.1c0,0,0,0-0.1,0c0.2,0,0.3,0.1,0.2,0.1c-0.4-0.2-0.4,0-0.8,0
								C226.2,140.8,226.8,140.8,226.9,140.8z M255,157.7c0,0,0,0.1,0.1,0.1l-0.3-0.2c-0.4-0.4-0.7-0.7-1.1-0.9
								c-0.2-0.2-0.2-0.3-0.3-0.4c0.1,0.1,0.2,0.1,0.2,0.2C254.8,157.3,254,157.1,255,157.7z M250.2,153.7
								C250.2,153.8,250.2,153.8,250.2,153.7c-1-0.6-1.8-1.1-2.4-1.5c0.1,0.1,0.5,0.5,0.7,0.7l-0.2-0.1l-0.1-0.1l-0.4-0.2
								c0.1,0.1,0.4,0.3,0.5,0.5c0,0,0.7,0.4,0.9,0.5l-0.4-0.4c0.1,0.1,0.8,0.6,1,0.7c0,0-0.4-0.4-0.5-0.4c0-0.1,0.5,0.3,0.2,0
								c0.4,0.2,1,0.7,1.2,0.9l0,0.1c0.3,0.3,0.3,0.1,0.6,0.4c-0.4-0.3,0,0.1-0.3-0.1c0.1,0.1-0.1,0.1,0.3,0.3
								c0.4,0.1,0.3,0.4,0.7,0.5c0.2,0.2-0.2-0.1,0.1,0.2c0.4,0.3,0.5,0.2,0.5,0.2c-0.4-0.3-0.5-0.2-0.8-0.5l0.7,0.4
								c-0.1-0.1-0.2-0.2-0.3-0.2c0.1,0.1,0.3,0.2,0.4,0.2c0.1,0,0.1,0.1,0.2,0.1c-0.4-0.3-0.7-0.5-0.7-0.6l0.1,0
								c-0.1-0.1-0.3-0.3-0.4-0.3c-0.3-0.2-0.7-0.4-0.7-0.5l0.1,0.1C250.7,154.1,250.7,154.1,250.2,153.7z M237.2,144.1
								c0.2,0.3,0.4,0.6,1.5,1.4l-0.1-0.1c0.5,0.5,1.2,0.7,1.8,1.3c-0.4-0.2-0.3-0.2-0.8-0.3l0.4,0.2c-0.2,0,0.2,0.2,0.5,0.4
								l-0.3-0.1c-0.1-0.1-0.5-0.5-0.5-0.4c0.1,0.1-0.5-0.5-0.8-0.7c0,0.1,0.7,0.6,0.3,0.5c0.3,0.2,0.3,0.3,0.6,0.5
								c-0.3-0.2-0.1,0-0.4-0.1l0.5,0.3c0,0-0.7-0.5-0.4-0.1c0.2,0.1,0.7,0.5,0.8,0.5l0,0c0.4,0.3,0.2,0,0.6,0.4c0,0,0-0.1-0.2-0.2
								c-0.1-0.1-0.2-0.1-0.5-0.3c-0.1-0.1,0.3,0.3,0.2,0c-0.1-0.1-0.8-0.5-0.5-0.5l0.4,0.3c0.1-0.1,0.3,0.1,0.3,0.1
								c0.2,0.1,0.4,0.4,0.7,0.5c0.1,0,0-0.2,0.4,0.1c0.2,0.3,1.1,0.9,1.4,1.2l0.3,0.2c0-0.1-0.5-0.4-0.3-0.3l0.5,0.3l-0.1,0
								c0.1,0.1,0.3,0.2,0.5,0.3c-0.2-0.1-0.5-0.3-0.5-0.2c0.2,0.2,0.2,0.2,0.4,0.3c0,0-0.1,0-0.1,0c0.4,0.3,0.5,0.2,0.6,0.3
								c0.5,0.2-0.4-0.4-0.3-0.4l1.3,0.9c-0.1-0.1-0.2-0.1-0.2-0.1c0.3,0.3,0,0.1,0.4,0.4c0-0.1,0.6,0.3,0.9,0.5
								c0.1,0.1,0.1,0.2-0.2-0.1c0,0.1,0.4,0.4,0.6,0.5c0.1,0.1,0.2,0.1,0.3,0.2c-0.1-0.1,0-0.1,0.3,0.1l0,0c-0.4-0.3-1.1-0.9-1.4-1
								l0.1,0c-0.5-0.4-1.2-0.7-1.3-1c0.1,0-0.1-0.1,0-0.1l-0.4-0.2l0.1,0l-0.6-0.5l0,0c-0.3-0.2-0.6-0.3-0.8-0.4c0,0,0,0.1-0.1,0
								c-0.1-0.1-0.2-0.1-0.3-0.2h0l0,0c-0.1-0.1-0.2-0.2-0.4-0.4l0.6,0.4c0.1,0,0.1-0.1-0.2-0.3c0.1,0.1,0.2,0.1,0.1,0
								c0,0-0.4-0.3-0.3-0.1c-0.6-0.4-1.4-1.2-2.3-1.7c0.6,0.4-0.4-0.4,0.2,0.1c-0.4-0.4-0.5-0.2-0.9-0.6c0-0.1,0.3,0.2,0.4,0.2
								c-0.8-0.6-1.4-0.9-2.2-1.4l0-0.1C237.5,144.3,237.4,144.2,237.2,144.1z M235.5,143.2c-0.2-0.1-0.3-0.2-0.5-0.2l0,0l-0.5-0.2
								c0.3,0.2,0.5,0.4,0,0.2c0,0-0.1-0.1,0.1,0c-0.3-0.2-0.9-0.5-0.8-0.4c0.6,0.2,0.1,0.2,0.5,0.3c-0.3-0.1-0.5-0.2-0.7-0.3
								c0.3,0,0-0.1-0.3-0.3c-0.2,0-0.6-0.2-0.8-0.3c0.1,0.1-0.2,0,0.2,0.2c-0.2,0-0.4-0.1-0.7-0.3c0.1,0,0.3,0.1,0.3,0.1
								c-0.1-0.1-0.4-0.2-0.5-0.3l-0.3-0.1c0,0,0,0,0.1,0l-0.3,0c0.4,0.1,0.2,0.1,0.2,0.1c0-0.1-0.3-0.1-0.4-0.1l0.3,0.2
								c-0.2,0-0.5-0.2-0.4-0.1c0.6,0.2,0.9,0.3,1.4,0.5l-0.2-0.2c0.6,0.2,0.3,0.3,1,0.5c0.2,0,0.4,0.1,0.7,0.2
								c0.2,0.1,0.4,0.2,0.4,0.1c-0.1,0,0.4,0.3,0.6,0.4c0.3,0,1.1,0.4,0.9,0.3c-0.2-0.1-0.5-0.2-0.7-0.4l0.4,0.2l-0.2-0.2
								C235.5,143.4,235.5,143.3,235.5,143.2z M225.7,139.6L225.7,139.6L225.7,139.6L225.7,139.6z"/>
							<path fill="#0B1439" d="M260.5,161.7c0.1,0.1,0.4,0.3,0.4,0.2C260.8,162,260.4,161.6,260.5,161.7z"/>
							<path fill="#0B1439" d="M260.7,162c0,0,0,0,0.1,0.1l-0.3-0.2L260.7,162z"/>
							<path fill="#0B1439" d="M260.8,162.6c0.2,0.1,0.3,0.2,0.6,0.4C261.4,163.2,260.9,162.7,260.8,162.6c0.4,0.5,0.6,0.5,1,0.8
								C261.6,163.2,260.9,162.6,260.8,162.6z"/>
							<polygon fill="#0B1439" points="260.5,162.6 260.7,162.8 260.7,162.8 260.4,162.6 							"/>
							<path fill="#0B1439" d="M255.6,157.1c0-0.1-0.2-0.1-0.3-0.2C255.4,156.9,255.5,157,255.6,157.1z"/>
							<path fill="#0B1439" d="M196.7,149.5c0,0-0.5,0.4-1,0.8c-0.5,0.4-1,0.8-1,0.8C195.2,150.6,195.8,150.2,196.7,149.5z"/>
							<path fill="#0B1439" d="M248.8,152.2c0.6,0.4,0.9,0.5,1.4,0.9c-0.7-0.6-1.1-0.6-1.6-1.1L248.8,152.2z"/>
							<path fill="#0B1439" d="M249.2,152c0,0.1-0.5-0.2-0.4-0.1c0.4,0.3,0.2,0.1,0.6,0.3L249.2,152z"/>
							<polygon fill="#0B1439" points="250.8,155.1 250.6,155 250.7,155.1 							"/>
							<polygon fill="#0B1439" points="246.6,150.2 246.7,150.3 246.5,150 							"/>
							<path fill="#0B1439" d="M246.8,150.3L246.8,150.3L246.8,150.3z"/>
							<polygon fill="#0B1439" points="250.4,155.1 250.7,155.3 250.8,155.3 							"/>
							<path fill="#0B1439" d="M248.5,153.1l0.2,0.1C248.7,153.2,248.5,152.9,248.5,153.1z"/>
							<polygon fill="#0B1439" points="245,149 244.7,148.8 244.7,148.8 245,149 							"/>
							<path fill="#0B1439" d="M246.7,152c0.1,0.2-0.5-0.3-0.2,0C246.8,152.2,246.7,152,246.7,152z"/>
							<path fill="#0B1439" d="M243.7,149.2c0,0-0.1-0.1-0.1-0.1C243.6,149.1,243.7,149.2,243.7,149.2z"/>
							<path fill="#0B1439" d="M243.7,149.2c0.1,0.1,0.2,0.2,0.3,0.2C243.9,149.3,243.8,149.3,243.7,149.2z"/>
							<path fill="#0B1439" d="M242.4,148.2l0.1,0.1c-0.1-0.1-0.1,0,0,0c0.1,0.1,0.1,0.1,0.1,0.1c0,0,0.1,0,0.1,0c0,0-0.1,0-0.1,0
								C242.5,148.2,242.3,148.2,242.4,148.2z"/>
							<path fill="#0B1439" d="M238,143.6c0.4,0.3,0.5,0.4,0.5,0.4c0.4,0.3,0.4,0.2,0.6,0.3c-0.1-0.1-0.2-0.1-0.3-0.2
								c-0.1-0.1-0.2-0.1-0.2-0.2C238.4,143.9,238.3,143.7,238,143.6z"/>
							<path fill="#0B1439" d="M239.1,144.3c0,0,0.1,0.1,0.1,0.1C239.2,144.4,239.1,144.3,239.1,144.3z"/>
							<polygon fill="#0B1439" points="243.6,149.9 243.3,149.7 243.4,149.8 							"/>
							<path fill="#0B1439" d="M237.4,143.1c0.1,0.1,0.2,0.1,0.3,0.2C237.7,143.3,237.3,143.1,237.4,143.1z"/>
							<path fill="#0B1439" d="M238.4,145.1c0,0.1,0.3,0.2,0.4,0.3C238.6,145.3,238.6,145.1,238.4,145.1z"/>
							<path fill="#0B1439" d="M236,142.6c0.1,0,0.2,0.1,0.1,0.2C236.3,142.8,236.5,142.8,236,142.6z"/>
							<polygon fill="#0B1439" points="237.7,144.6 237.7,144.6 238,144.8 							"/>
							<path fill="#0B1439" d="M238.2,145.9c0.3,0.2-0.4-0.5,0.2-0.1c-0.6-0.6,0,0.1-0.5-0.3C238.1,145.7,238.2,145.9,238.2,145.9z"
								/>
							<path fill="#0B1439" d="M237.8,145.5c0,0-0.1-0.1-0.1-0.1C237.8,145.5,237.8,145.5,237.8,145.5z"/>
							<path fill="#0B1439" d="M233.5,142.6c0,0,0.1,0,0.1,0C233.6,142.6,233.6,142.6,233.5,142.6z"/>
							<path fill="#0B1439" d="M236.2,144.5l0.5,0.2c-0.3-0.1-1.1-0.7-1.1-0.5C235.9,144.4,236.2,144.6,236.2,144.5L236.2,144.5z"/>
							<path fill="#0B1439" d="M231,140.3l0.3,0L231,140.3C231,140.2,230.8,140.3,231,140.3z"/>
							<path fill="#0B1439" d="M230.9,140.2L230.9,140.2C230.9,140.2,230.9,140.2,230.9,140.2z"/>
							<path fill="#0B1439" d="M234.5,143c0.2,0.1,0.3,0.2,0.4,0.2C234.9,143.2,234.5,142.9,234.5,143z"/>
							<polygon fill="#0B1439" points="229.2,140 229.6,140 229.2,139.9 							"/>
							<polygon fill="#0B1439" points="227.3,139.4 227.3,139.4 226.9,139.4 227,139.4 							"/>
							<path fill="#0B1439" d="M229.4,141.8c0.3,0.1,0.5,0,0.4,0c0,0-0.5-0.1-0.5-0.1c0.1,0.1,0.1,0,0.4,0.1
								C229.7,141.8,229.4,141.8,229.4,141.8z"/>
							<path fill="#0B1439" d="M213.2,141c0.1-0.1,0.7-0.2,0.7-0.2c-0.1,0-0.4,0.2-0.2,0.1l0.4-0.3c0.6-0.1-0.4,0.3-0.7,0.4
								c0.6-0.2,0.8-0.3,1.4-0.5c-0.2,0-0.3,0-0.4,0.1c0-0.1,0.6-0.2,1-0.3c-0.3,0-0.1,0,0.1-0.1c0,0,0.1,0,0.1,0l0.1,0l-0.1,0
								c0,0,0,0-0.1,0c-0.4,0.1-0.7,0.1-0.9,0.2c0.3,0.1-0.8,0.3-1.1,0.4l-0.3,0.1l-0.1,0c0,0,0,0,0.2-0.1c-0.2,0.1-0.7,0.2-0.6,0.3
								l-1.2,0.4c0,0-0.1,0-0.1,0c0,0,0,0,0,0c0,0-0.3,0.1-0.8,0.3c-0.5,0.2-1.1,0.5-1.8,0.7c-0.6,0.3-1.3,0.6-1.7,0.8
								c-0.5,0.2-0.8,0.4-0.8,0.4c0.3-0.1,0.5-0.2,0.7-0.3c-0.3,0.3,0.4-0.2,0.4,0c-0.2,0.1-0.4,0.2-0.6,0.3c0,0.1,0.2,0,0.2,0.1
								c0.7-0.2,0.7-0.5,1.3-0.7c0,0.1-0.2,0.2,0.2,0l-0.1,0.1c0.6-0.4,0.6-0.1,0.9-0.4l0,0.1c0.3-0.2,0.9-0.4,1.2-0.6l0,0
								c0.9-0.4,0.5-0.2,1.6-0.6l-0.5,0.3c0.4-0.1,0.4-0.2,0.7-0.3c0,0,0.1,0.1-0.2,0.2c0,0,0.3-0.1,0.6-0.3
								c0.3-0.1,0.6-0.3,0.6-0.3C213.6,140.9,213.2,141,213.2,141z"/>
							<path fill="#0B1439" d="M214.9,140.6c0.1,0,0.2,0,0.2-0.1C215,140.6,214.9,140.6,214.9,140.6z"/>
							<path fill="#0B1439" d="M205.9,143.8l0.3-0.2C206.1,143.7,206,143.7,205.9,143.8z"/>
							<path fill="#0B1439" d="M216.7,140c-0.2,0,0.2-0.1,0.2-0.1l-0.8,0.2c0,0-0.1,0.1,0,0.1L216.7,140z"/>
							<path fill="#0B1439" d="M215.8,140c0,0-0.1,0.1-0.2,0.1l0.5-0.1C216.1,140,216,140,215.8,140z"/>
							<polygon fill="#0B1439" points="216.3,141.6 216.2,141.6 215.9,141.7 							"/>
							<path fill="#0B1439" d="M214.1,142.1c0.2,0,0.5-0.1,0.6-0.2C214.3,142,214.4,141.9,214.1,142.1z"/>
							<polygon fill="#0B1439" points="214.6,142.4 214.3,142.5 214.3,142.5 							"/>
							<path fill="#0B1439" d="M203.5,145.4l-0.2,0.1C203.4,145.4,203.4,145.4,203.5,145.4z"/>
							<path fill="#0B1439" d="M206.3,143.8c-0.8,0.3,0.5-0.3,0.2-0.3l-0.4,0.2l0,0l-0.5,0.3c0.1,0,0.2,0,0.2,0
								c-0.7,0.3-0.3,0.1-0.8,0.2l-0.8,0.4l0.1,0c-0.1,0-0.1,0.1-0.1,0.1c0,0-0.7,0.4-1.3,0.7c-0.6,0.4-1.3,0.8-1.3,0.8
								c-0.4,0.3,0.3-0.1,0,0.2c0.5-0.3,1.4-0.7,1.4-0.9c0,0,0,0.1,0.1,0l0.3-0.3l-0.3,0.1c0.3-0.3,1.3-0.8,1.5-0.9
								c-0.6,0.3-0.2,0.3-1.1,0.7c0.1,0,0.2,0,0,0.1C204.4,144.8,205.3,144.4,206.3,143.8z"/>
							<path fill="#0B1439" d="M196.9,149.5L196.9,149.5C196.9,149.5,196.9,149.5,196.9,149.5z"/>
							<path fill="#0B1439" d="M197.2,149.3l0.4-0.4l-0.7,0.5l0,0.1c0-0.1,0.3-0.3,0.4-0.3L197.2,149.3z"/>
							<path fill="#0B1439" d="M198,148.5c-0.3,0.3-0.3,0.3-0.1,0.2c-0.3,0.3-0.2,0-0.4,0.3c0,0,0.4-0.3,0.5-0.3L198,148.5z"/>
							<polygon fill="#0B1439" points="200.7,146.8 200.7,146.9 200.9,146.8 							"/>
							<path fill="#0B1439" d="M200.7,146.9l-0.3,0.1c0,0,0.1,0,0.1,0L200.7,146.9z"/>
							<path fill="#0B1439" d="M199.7,147.5c-0.1,0.1-0.2,0.1-0.4,0.2L199.7,147.5z"/>
							<path fill="#0B1439" d="M200,147.3L200,147.3l-0.3,0.2C199.8,147.4,199.9,147.3,200,147.3z"/>
							<path fill="#0B1439" d="M200.4,147.1c-0.1,0-0.2-0.1-0.5,0.2l0.1,0L200.4,147.1z"/>
							<polygon fill="#0B1439" points="212.1,143.1 211.8,143.3 211.8,143.3 212.1,143.1 							"/>
							<path fill="#0B1439" d="M210.3,143.7c-0.1,0-0.1,0.1-0.2,0.1C210.2,143.8,210.3,143.8,210.3,143.7z"/>
							<path fill="#0B1439" d="M209.2,144.7c-0.4,0.1,0.5-0.3-0.2,0c-0.1,0,0.2-0.2,0.5-0.3c0,0.1-0.3,0.2-0.1,0.1
								c0.2-0.1,0.3-0.1,0.2-0.2c0.3-0.2,0.3-0.3,0.6-0.4c-0.4,0.2-1.3,0.5-1.8,0.8c-0.2,0.2,0,0.3,0,0.4
								C208.4,145.1,209.2,144.8,209.2,144.7z"/>
							<path fill="#0B1439" d="M209.8,144.5c0.2-0.1,0.2-0.1,0.3-0.1C210.1,144.4,209.9,144.5,209.8,144.5z"/>
							<path fill="#0B1439" d="M205.6,145.3c0,0-0.3,0.2-0.2,0.2l0.4-0.2C205.7,145.3,205.7,145.3,205.6,145.3z"/>
							<path fill="#0B1439" d="M206,145.2l-0.2,0.1C205.9,145.2,205.9,145.2,206,145.2z"/>
							<path fill="#0B1439" d="M205.6,145.3L205.6,145.3C205.6,145.3,205.6,145.3,205.6,145.3z"/>
							<path fill="#0B1439" d="M198.7,148.1c0,0-0.2,0.1-0.3,0.2C198.5,148.2,198.6,148.2,198.7,148.1z"/>
							<path fill="#0B1439" d="M192,153.2l-0.2,0.1C191.9,153.3,191.9,153.3,192,153.2z"/>
							<path fill="#0B1439" d="M190.4,156C190.4,156,190.4,156.1,190.4,156C190.4,156.1,190.4,156,190.4,156z"/>
							<path fill="#0B1439" d="M190.4,156.1c-0.1,0.1-0.4,0.4-0.5,0.5l0,0l-0.2,0.2C189.9,156.6,190.3,156.2,190.4,156.1z"/>
						</g>
					</g>
				</g>
			</g>
		</g>
	</g>
	<path fill="#00994C" d="M381.5,75c-1.6,2.7-2.3,5.8-2.3,9.1c8.8,4,14.9,12.6,19.8,20.5c3-0.5,5.7-1.8,8.4-3
		c7.3,12.5,8.9,32.8,1.5,45.6c-9.5-8.6-11.2,5.5-16,9.9c-5.6,11.2-24.9,7.5-17.4,25l4.6,45.6h-35.8l4.6-57.8
		c-10.5-4.8-20.3-14.5-25-25l-8.4,2.2c-7.4-12.8-5.9-33.3,1.5-45.6c2.7,0.7,4.8,2.8,7.6,3c5.3-7.7,11.9-16.9,20.6-21.3
		c0.6-3.7-5.6-8.3,0-10.6C355.5,67,372,67.3,381.5,75z"/>
	<path fill="#FFFFFF" d="M378.5,75.8c-3.2,8.7-4.9,18.1-8.4,26.7c-2,1.5-4.4,2.2-6.1,4.6c-0.3,2.5,0.6,5.6-0.7,7.6
		c-5.9,1.3-1.4-5.6-3.9-7.6c-10.1-6.7-9.7-20.5-13.7-31.2c3.1-1.5,6.2-3.5,9.9-3.8C363.7,72.1,372.3,71.1,378.5,75.8z"/>
	<path fill="#00994C" d="M371.6,78.8c-3.3,9.4-2,21.4-9.8,28.2c0-2.7-3-4.1-4.6-6.1l-5.4-21.3C358.4,77.1,364.5,78,371.6,78.8z"/>
	<path fill="#FFFFFF" d="M369.4,81.8c-1.5,6.1-3,12.2-4.6,18.3c-1.8,1.5-3.5,1.5-5.4,0c-0.8-6.8-4.7-13.2-3.7-19.8
		C360.2,80.8,365.7,79.1,369.4,81.8z"/>
	<path fill="#FFFFFF" d="M345.7,87.9c3.3,6.4,2,15.9,9.9,19.1c2.7,2.1,1,7,1.5,9.1c0.9,1.3,2.2,1.7,3.8,1.5
		c-3.9,1.1-4.8,6.1-5.3,9.8c1.4,4.1,6.2,5.8,9.8,3.9c4-1.9,2.1-7.1,1.5-9.9c-1.2-1-2.2-2.7-3.8-3c6.3-0.8-0.4-13,8.3-12.9
		c4.3-5,4-11.9,6.9-17.5c7.1,2.6,14.8,10.3,17.4,17.5c-5.8,5.8-18.4,3.2-19,13.7l-6.9,0.7c-0.9,3.4-1.8,8.6,0.8,11.5
		c6.2-1.7,8.5,2.4,10.6,6.8c4.7,2.8,10.2,3.7,15.2,6.1c-3.9,8.9-10.6,17.3-19.8,21.3l-1.5-1.5c-3-9.1,4.2-25.8-9.1-27.4
		c-1.5-2.8-4.4-2.1-6.9-2.2c-1.5,5.6-8.1,3.7-9.8,8.3c0.3,8.1-0.4,15.7-2.3,22.8c-9-2.6-17.2-12.5-19.8-21.3
		c5.7-5.1,17.6-1.3,18.2-12.2c4.6-0.5,12.2-0.8,9.1-8.3c1.1-7.4-11.8-0.6-9.8-9.9c-5.2-3.9-11.7-4.4-16.7-8.3
		C331.3,97.8,338.1,91.1,345.7,87.9z"/>
	<path fill="#00994C" d="M346.5,98.6c-3.5,2.1-6.4,5.8-8.4,9.1c-2.9,0.9-4.3-2.2-6.8-2.2c1.8-5.8,6.8-12.4,12.9-14.5
		C345.5,93.3,345.4,96.2,346.5,98.6z"/>
	<path fill="#00994C" d="M392.9,104.6c-1.3,1.6-4.2,3.1-6.8,3c-2.9-5.3-12.9-9.5-6.9-16.7C385.3,93.6,390.2,98.7,392.9,104.6z"/>
	<path fill="#FFFFFF" d="M343.5,95.5c0.1,4.1-4.6,6.1-6.9,9.1l-2.2-1.5c2.5-3.2,4.5-6.4,8.3-8.3L343.5,95.5z"/>
	<path fill="#FFFFFF" d="M389.1,103.9c-3.6,0.6-6.6-5.1-9.1-6.9l1.5-2.2C384.4,97,388.9,99.9,389.1,103.9z"/>
	<path fill="#00994C" d="M348.1,102.4c-2.3,2.2-5.1,5.1-6.9,6.8c0.4-3.1,4.1-5,6.1-7.6L348.1,102.4z"/>
	<path fill="#00994C" d="M383,109.2l-6.9-6.8C379.1,103.1,382.3,106.3,383,109.2z"/>
	<path fill="#FFFFFF" d="M341.2,114.6c2.6,2.1,0.9,6,4.6,7.6l6.1,0.7c1.9,9-11.5,3.8-12.2,13c-7.2,3.9-15.6,4.7-22.8,8.3
		c-6.8-10.9-3.4-27.3,0-38.7C325.7,106.9,333.1,111.5,341.2,114.6z"/>
	<path fill="#FFFFFF" d="M406.6,105.5c5.1,10.7,6.7,26.8,1.5,38c-8.2-2.2-16.6-4.1-24.3-7.6c-1.8-2.5-2.4-5.6-5.3-7.6
		c-2.3-0.5-6.2,1.2-6.9-1.5c0.1-1.7-0.4-3.6,1.5-4.6c6.7,2.8,7.2-4.5,9.9-7.6C391.1,112.1,397.8,106.5,406.6,105.5z"/>
	<path fill="#00994C" d="M354.9,114.6v3c-6.2,1.9-7.5-2.8-9.1-6.9c-0.6-2.1,2-3,3-4.6C351.6,108,357,109.4,354.9,114.6z"/>
	<path fill="#00994C" d="M378.5,109.2c-1.3,3.1-2.2,8.4-6.1,8.4c-2,0.3-5.1-0.2-3.8-3.1c-0.8-4.2,2.6-6.1,5.4-8.4
		C376.1,105.7,377,108.2,378.5,109.2z"/>
	<path fill="#FFFFFF" d="M353.3,113.1v1.5c-3.2,1.3-3.3-2.6-5.3-3.8l0.7-1.5C350.7,110.1,353.3,110.3,353.3,113.1z"/>
	<path fill="#FFFFFF" d="M375.4,109.2c0.4,2.3-0.6,4.1-2.3,5.4h-2.2C369.2,110.8,373.3,110.1,375.4,109.2z"/>
	<path fill="#00994C" d="M342,122.2l4.6,3c-4.4,0.3-4.5,5.7-8.4,6.8c-6.4,1.5-12.4,3.9-19,4.6c-0.7-8.8-2.4-17.1,1.5-25
		C327.4,115.9,337.8,114.8,342,122.2z"/>
	<path fill="#00994C" d="M405.9,119.8c0.6,6.1-1.1,11.2-1.5,16.7c-8.5-2.3-18.6-2.4-24.3-9.8c-1.1-0.3-2.3-0.5-3-1.5
		c6.7-0.4,6-9.1,12.9-9.1C395.8,116.8,408.6,104.5,405.9,119.8z"/>
	<path fill="#FFFFFF" d="M340.5,123.7c-0.7,9-12.3,7.7-19.1,9.8c-0.9-5.6-1.8-13.1,0.8-18.2C328.3,118.1,336.5,117.3,340.5,123.7z"
		/>
	<path fill="#FFFFFF" d="M403.5,122.9l-0.7,10.6c-5.9-1.5-12.1-2.2-17.5-4.6c-1.3-1.9-3.9-4.9-0.7-6.8
		C390,120.6,405.5,107.1,403.5,122.9z"/>
	<path fill="#FFFFFF" d="M365.5,124.4c0,1.9-0.7,3.4-2.2,4.6c-2.5,0.7-4.3-0.8-4.6-3c-0.8-2.1,1-3.2,2.2-4.6
		C363.3,120.5,364.9,122.9,365.5,124.4z"/>
	<path fill="#00994C" d="M356.4,133.5c-1.6,4.5-9.4,3.7-8.3,10c-5-1.8-0.4-6.8,0-10C350.3,132.4,354,132.4,356.4,133.5z"/>
	<path fill="#00994C" d="M375.4,132.8c0.2,3.5,6.2,7.6,0.7,10.7c1.4-7.2-8.6-4.7-8.3-10.7H375.4z"/>
	<path fill="#FFFFFF" d="M353.3,134.3c-1.3,1.9-5.4,2.1-6.1,5.3C347.4,136.4,349.5,133.3,353.3,134.3z"/>
	<path fill="#FFFFFF" d="M377,138.1v1.5c-1.9-2.7-5.3-3.6-6.9-5.3C373.3,133.3,375.8,135.7,377,138.1z"/>
	<path fill="#FFFFFF" d="M371.6,172.4l5.4,53.2h-29.7c1.2-27.6,6.7-53.3,6.9-81.4c2-2.5,5.9-0.8,7.6-4.5
		C378.1,142.5,367.4,161.8,371.6,172.4z"/>
	<polygon fill="#00994C" points="347.3,148.7 340.5,142 348.1,148 	"/>
	<path fill="#00994C" d="M383,142c-0.4,3.7-4.6,4.6-6.9,6.8C377.3,145.4,381.5,144.6,383,142z"/>
	<path fill="#00994C" d="M345,160.2c-6.1-1.7-11.9-6.8-13.7-13l6.1-3.1C339,150.6,352,151.5,345,160.2z"/>
	<path fill="#00994C" d="M392.9,147.2c-1.9,6-8.3,10.7-13.7,13c-6-6.8,3.9-10.2,6.9-16C388.3,145.3,391,145.5,392.9,147.2z"/>
	<path fill="#00994C" d="M367,169.3c1.8,17.4,2.4,35.5,5.4,52.4c-7.6,0-12.3,0-19.8,0l-0.8-1.5c4.3-22.6,4.1-47.1,6.1-70.7
		c1.9-0.7,3.9-3.8,6.1-1.5l2.3,2.2L367,169.3z"/>
	<path fill="#FFFFFF" d="M344.2,154.1c-0.3,1,0.6,2.5-0.7,3c-3.5-1.4-8-5.1-8.4-9.1C339.1,147.6,340.9,152.9,344.2,154.1z"/>
	<path fill="#FFFFFF" d="M389.1,148c-0.3,4.4-5.2,7.2-8.4,9.1c-3.2-4.9,4.7-5,5.4-9.1H389.1z"/>
	<path fill="#FFFFFF" d="M364,151.8c0.9,23.1,4.1,45.2,6.1,67.7c-5.6,1.4-9.2,0.5-15.2,0.7c-1.5-12.9,2.6-25.3,2.3-38.7
		c2.3-9.9,1.3-21.3,3.8-31.2C362.4,149.9,363.1,151,364,151.8z"/>
	<g>
		<rect x="41.7" y="480.3" fill="#D9272D" width="0" height="20.7"/>
		<path fill="#D9272D" d="M34.2,471.6c-4.9-4.5-9.8-9.1-14.3-12.5c-0.4-0.3-0.8-0.6-1.2-0.9c0.4,0.3,0.8,0.6,1.2,0.9
			C24.4,462.5,29.3,467.1,34.2,471.6z"/>
		<path fill="#D9272D" d="M44.3,480.6c-3.3-2.6-6.7-5.8-10.2-8.9c-4.9-4.5-9.8-9.1-14.3-12.5c-0.4-0.3-0.8-0.6-1.2-0.9
			c-6.6-4.6-13-6.6-16.4-2.1c-12,15.7,28.4,44.4,37,44.5l0,0L44.3,480.6L44.3,480.6z"/>
		<path fill="#D9272D" d="M39.8,422.4c0,0,0.2,1.1,0.3,1.9c1,5.3,4,16.6,12.5,25c9.7,9.6,14.8,25.4,14.6,30.6l13.8-57.6
			C55.2,422,39.8,422.4,39.8,422.4z"/>
		<path fill="#D9272D" d="M51.8,457.3c-4.3-5.6-8.7-11.2-11.7-19.5c-1.2-3.2-3-7-4.2-10.8c-0.7-2.3-1.2-4.5-1.2-6.5
			c0-1.7,0.6-4.8,1.7-8.8c0.4-1.6,0.9-3.4,1.4-5.3c6.4-22.9,20.6-63.4,22.1-67.8c0.1-0.2,0.1-0.3,0.1-0.4c-8-7.9-14.3-14.3-19.1-6.6
			l-40.7,121c11.4-23.6,46.3,37.4,63.5,31.7c-0.6-6-1.9-11.8-4.4-16.2C57,464.1,54.4,460.7,51.8,457.3z"/>
	</g>
	<polygon fill="#D9272D" points="475.3,302 74.9,302 38.7,417.9 511.5,417.9 	"/>
	<g>
		<rect x="508.4" y="480.3" fill="#D9272D" width="0" height="20.7"/>
		<path fill="#D9272D" d="M516,471.6c4.9-4.5,9.8-9.1,14.3-12.5c0.4-0.3,0.8-0.6,1.2-0.9c-0.4,0.3-0.8,0.6-1.2,0.9
			C525.8,462.5,520.9,467.1,516,471.6z"/>
		<path fill="#D9272D" d="M505.8,480.6c3.3-2.6,6.7-5.8,10.2-8.9c4.9-4.5,9.8-9.1,14.3-12.5c0.4-0.3,0.8-0.6,1.2-0.9
			c6.6-4.6,13-6.6,16.4-2.1c12,15.7-28.4,44.4-37,44.5l0,0L505.8,480.6L505.8,480.6z"/>
		<path fill="#D9272D" d="M510.4,422.4c0,0-0.2,1.1-0.3,1.9c-1,5.3-4,16.6-12.5,25c-9.7,9.6-14.8,25.4-14.6,30.6l-13.8-57.6
			C495,422,510.4,422.4,510.4,422.4z"/>
		<path fill="#D9272D" d="M498.4,457.3c4.3-5.6,8.7-11.2,11.7-19.5c1.2-3.2,3-7,4.2-10.8c0.7-2.3,1.2-4.5,1.2-6.5
			c0-1.7-0.6-4.8-1.7-8.8c-0.4-1.6-0.9-3.4-1.4-5.3c-6.4-22.9-20.6-63.4-22.1-67.8c-0.1-0.2-0.1-0.3-0.1-0.4
			c8-7.9,14.3-14.3,19.1-6.6l40.7,121c-11.4-23.6-46.3,37.4-63.5,31.7c0.6-6,1.9-11.8,4.4-16.2C493.1,464.1,495.8,460.7,498.4,457.3
			z"/>
	</g>
	<g>
		<path fill="#FFFFFF" d="M364.4,372.9c-1,2-2.4,3.5-4.2,4.7c-1.7,1.2-3.7,1.8-6,1.8c-2,0-3.7-0.4-5.2-1.1c-1.5-0.7-2.7-1.7-3.7-2.9
			s-1.7-2.6-2.2-4.2c-0.5-1.6-0.7-3.3-0.7-5.1c0-1.6,0.3-3.2,0.8-4.7c0.5-1.5,1.3-2.9,2.2-4.2c1-1.2,2.1-2.1,3.6-2.9
			c1.4-0.7,3-1.1,4.8-1.1c1.8,0,3.4,0.3,4.6,0.9c1.3,0.6,2.3,1.3,3.1,2.3c0.8,0.9,1.3,2,1.7,3.3c0.4,1.3,0.6,2.7,0.6,4.1v1.7h-16.4
			c0,1.6,0.2,3.1,0.5,4.4c0.3,1.3,0.8,2.5,1.5,3.5c0.7,1,1.5,1.7,2.6,2.3c1.1,0.6,2.3,0.8,3.8,0.8c1.5,0,2.8-0.3,3.9-1
			c1.1-0.7,2.1-2,3.1-3.8L364.4,372.9z M358.8,363.4c0-0.9-0.1-1.9-0.2-3c-0.2-1.1-0.4-2-0.8-2.7c-0.4-0.8-0.9-1.4-1.6-1.9
			c-0.7-0.5-1.5-0.7-2.6-0.7c-1.8,0-3.2,0.7-4.4,2.2c-1.2,1.5-1.8,3.5-1.9,6.1H358.8z"/>
		<path fill="#FFFFFF" d="M378.8,378.7h-12.1V377c0.4,0,0.8-0.1,1.2-0.1c0.4,0,0.8-0.1,1.1-0.2c0.5-0.2,0.8-0.4,1.1-0.8
			c0.2-0.4,0.4-0.9,0.4-1.5v-28.7c0-0.6-0.1-1.2-0.4-1.7s-0.6-0.9-1-1.2c-0.3-0.2-0.9-0.4-1.7-0.6s-1.4-0.3-1.9-0.3v-1.6l9.3-0.6
			l0.4,0.4v34c0,0.6,0.1,1.1,0.3,1.4c0.2,0.4,0.6,0.7,1.1,0.9c0.4,0.2,0.7,0.3,1.1,0.4c0.4,0.1,0.8,0.1,1.2,0.2V378.7z"/>
		<path fill="#FFFFFF" d="M397.2,377.6c-1.1,0.5-2.1,0.8-3.1,1.1c-1,0.3-2.2,0.5-3.6,0.5c-2.1,0-3.5-0.5-4.4-1.6s-1.3-2.5-1.3-4.4
			v-16.8h-4.5v-2.4h4.6v-7.7h4.6v7.7h7.1v2.4h-7.1v13.8c0,1,0,1.9,0.1,2.6s0.3,1.3,0.5,1.8c0.3,0.5,0.7,0.9,1.2,1.1
			c0.5,0.3,1.3,0.4,2.2,0.4c0.4,0,1,0,1.8-0.1c0.8-0.1,1.4-0.2,1.7-0.3V377.6z"/>
		<path fill="#FFFFFF" d="M411.7,378.7h-11.9V377c0.4,0,0.8-0.1,1.2-0.1c0.4,0,0.8-0.1,1.1-0.2c0.5-0.1,0.8-0.4,1-0.8
			c0.2-0.4,0.3-0.9,0.3-1.5v-15.3c0-0.5-0.1-1-0.4-1.5c-0.2-0.4-0.6-0.8-1-1.1c-0.3-0.2-0.8-0.4-1.4-0.5c-0.6-0.1-1.2-0.2-1.7-0.3
			v-1.7l8.7-0.6l0.4,0.4v20.2c0,0.6,0.1,1.1,0.3,1.5c0.2,0.4,0.6,0.7,1.1,0.9c0.4,0.2,0.7,0.3,1.1,0.4c0.3,0.1,0.7,0.2,1.2,0.2
			V378.7z M408.5,343.9c0,1-0.3,1.8-0.9,2.5c-0.6,0.7-1.4,1.1-2.3,1.1c-0.9,0-1.6-0.3-2.2-1c-0.6-0.7-0.9-1.5-0.9-2.3
			c0-0.9,0.3-1.7,0.9-2.4c0.6-0.7,1.4-1,2.2-1c1,0,1.7,0.3,2.3,1C408.2,342.3,408.5,343,408.5,343.9z"/>
		<path fill="#FFFFFF" d="M426.2,379.4c-3.6,0-6.4-1.2-8.4-3.6c-2-2.4-3-5.6-3-9.6c0-1.7,0.3-3.4,0.8-4.9c0.5-1.5,1.3-2.9,2.4-4.1
			c1-1.2,2.2-2.1,3.7-2.9c1.5-0.7,3.1-1.1,4.9-1.1c2.4,0,4.4,0.6,5.9,1.7c1.5,1.2,2.3,2.7,2.3,4.8c0,0.8-0.2,1.6-0.6,2.2
			c-0.4,0.6-1.1,1-2,1c-1,0-1.8-0.2-2.3-0.8c-0.5-0.5-0.8-1.1-0.8-1.7c0-0.8,0.1-1.5,0.3-2.3c0.2-0.8,0.3-1.4,0.4-1.7
			c-0.3-0.5-0.7-0.9-1.3-1c-0.6-0.2-1.2-0.3-1.9-0.3c-0.8,0-1.6,0.2-2.3,0.5c-0.7,0.3-1.4,1-2.1,1.9c-0.6,0.8-1.1,2-1.5,3.4
			c-0.4,1.4-0.6,3.1-0.6,5.1c0,3.1,0.7,5.7,2.1,7.6c1.4,2,3.2,2.9,5.4,2.9c1.6,0,3-0.4,4.1-1.2c1.1-0.8,2.1-2,3-3.6l1.6,1.1
			c-1.1,2-2.6,3.5-4.4,4.7C430,378.8,428.1,379.4,426.2,379.4z"/>
	</g>
	<path fill="#FFFFFF" d="M344.2,330.1c-0.9-3-1.9-5.9-3.9-8.4c-1.1-1.5-2.5-2.8-4.1-3.2c-2-0.5-4.3-0.5-6.5,0
		c-2.7,0.6-5.7,2.4-8.4,3.9c-6.8,3.6-12.8,8.7-18.1,14.3c-2.4,2.5-4.2,5.6-6.1,8.4c-4.6,6.7-7.3,14.9-8.3,22.5
		c-0.7,4.9-0.6,9.9,0,14.8c0.6,4.7,1.9,9.5,4.3,13.6c1.4,2.6,4.1,5,7.1,5.7c2.4,0.5,5,0.5,7.4,0c4.1-0.8,8.1-2.7,11.7-5.1
		c4.8-3.1,9.5-6.9,13.2-11.4c0.9-1.1,2-2.2,2.5-3.7c-1.1,0.1-2.7-0.4-3.4,0.3c-2.1,2.1-3.7,4.8-6,6.8c-1.6,1.4-3.5,2.8-5.4,4.2
		c-3.3,2.4-7,4.1-10.7,5.5c-2.7,1-5.7,1.9-8.3,0.6c-0.7-0.4-0.3-2-0.2-3c0.5-3.3,1.1-6.6,2.2-9.8c6.6-20.9,15.7-41.1,28.4-59
		c1.3-1.8,2.9-3.6,4.9-4.4c2.2-1,1.8,1.5,2.9,2c0.2,1.3,0.9,1.9,1.4,3.2c2.6,6.5,2.5,13.4,3.1,20.1c0.8-0.1,2.4,0.5,2.5-0.3
		C346.5,341.5,345.8,335.4,344.2,330.1z M333.6,321.5c-1.3,0.7-2.2,1.8-3.1,3.1c-14.5,20.6-25.2,43.8-31.5,67.9
		c-0.5,1.9-0.7,3.2-0.5,5.2c-2-0.9-3.5-2.9-4.1-4.9c-0.5-1.4-1.2-2.7-1.6-4.3c-2.3-10.3-2.3-21.6,1.1-31.5c2-5.7,5-11.2,8.6-15.9
		c2.6-3.4,5.7-6.4,8.9-9.2c2.9-2.5,6.2-4.6,9.5-6.6c2.3-1.3,4.5-2.7,7-3.4c1.9-0.5,3.2-1.6,5.7-1.1
		C333.8,321.2,333.6,321.3,333.6,321.5z"/>
	<g>
		<path fill="#FFFFFF" d="M124.6,362.8c1,0.7,1.9,1.6,2.6,2.8c0.7,1.1,1,2.5,1,4.1c0,1.7-0.4,3.1-1.1,4.3c-0.7,1.2-1.7,2.2-2.8,3
			c-1.1,0.8-2.4,1.4-3.8,1.8c-1.4,0.4-2.9,0.6-4.4,0.6H99.3v-1.8c0.4,0,1-0.1,1.8-0.2c0.8-0.1,1.3-0.2,1.7-0.4
			c0.5-0.2,0.9-0.5,1.1-0.9c0.2-0.4,0.3-0.9,0.3-1.5v-25.6c0-0.6-0.1-1.1-0.3-1.5c-0.2-0.4-0.6-0.8-1.1-1.1
			c-0.5-0.3-1.1-0.4-1.7-0.6c-0.6-0.1-1.1-0.2-1.6-0.3v-1.8h16.4c1.3,0,2.5,0.1,3.7,0.4c1.2,0.3,2.3,0.7,3.3,1.3
			c1,0.6,1.8,1.4,2.4,2.4c0.6,1,1,2.2,1,3.7c0,1.3-0.2,2.4-0.7,3.4c-0.5,1-1.1,1.8-1.9,2.5c-0.8,0.7-1.7,1.2-2.6,1.7
			c-1,0.5-2.1,0.8-3.2,1.1v0.2c1,0.1,2.2,0.4,3.4,0.8C122.5,361.5,123.6,362.1,124.6,362.8z M118.6,357.4c0.6-0.7,1-1.5,1.3-2.4
			c0.2-0.9,0.4-1.9,0.4-3c0-2-0.5-3.5-1.6-4.6c-1.1-1.1-2.8-1.7-5.1-1.7c-0.5,0-1.2,0-2,0s-1.5,0-2,0.1v13.7h3.2
			c1.4,0,2.5-0.2,3.5-0.5S118,358.1,118.6,357.4z M122,368.8c0-2.1-0.7-3.8-2.1-5.2s-3.4-2-6.1-2c-1.1,0-2,0-2.7,0
			c-0.7,0-1.3,0-1.7,0.1v12.5c0,1.1,0.4,1.8,1.3,2.4c0.9,0.5,2,0.8,3.6,0.8c2.5,0,4.4-0.7,5.7-2.2C121.4,373.7,122,371.6,122,368.8z
			"/>
		<path fill="#FFFFFF" d="M158.2,362.8c1,0.7,1.9,1.6,2.6,2.8c0.7,1.1,1,2.5,1,4.1c0,1.7-0.4,3.1-1.1,4.3c-0.7,1.2-1.7,2.2-2.8,3
			c-1.1,0.8-2.4,1.4-3.8,1.8c-1.4,0.4-2.9,0.6-4.4,0.6h-16.9v-1.8c0.4,0,1-0.1,1.8-0.2c0.8-0.1,1.3-0.2,1.7-0.4
			c0.5-0.2,0.9-0.5,1.1-0.9c0.2-0.4,0.3-0.9,0.3-1.5v-25.6c0-0.6-0.1-1.1-0.3-1.5c-0.2-0.4-0.6-0.8-1.1-1.1
			c-0.5-0.3-1.1-0.4-1.7-0.6c-0.6-0.1-1.1-0.2-1.6-0.3v-1.8h16.4c1.3,0,2.5,0.1,3.7,0.4c1.2,0.3,2.3,0.7,3.3,1.3
			c1,0.6,1.8,1.4,2.4,2.4c0.6,1,1,2.2,1,3.7c0,1.3-0.2,2.4-0.7,3.4c-0.5,1-1.1,1.8-1.9,2.5c-0.8,0.7-1.7,1.2-2.6,1.7
			c-1,0.5-2.1,0.8-3.2,1.1v0.2c1,0.1,2.2,0.4,3.4,0.8C156.1,361.5,157.2,362.1,158.2,362.8z M152.2,357.4c0.6-0.7,1-1.5,1.3-2.4
			c0.2-0.9,0.4-1.9,0.4-3c0-2-0.5-3.5-1.6-4.6c-1.1-1.1-2.8-1.7-5.1-1.7c-0.5,0-1.2,0-2,0s-1.5,0-2,0.1v13.7h3.2
			c1.4,0,2.5-0.2,3.5-0.5S151.6,358.1,152.2,357.4z M155.6,368.8c0-2.1-0.7-3.8-2.1-5.2s-3.4-2-6.1-2c-1.1,0-2,0-2.7,0
			c-0.7,0-1.3,0-1.7,0.1v12.5c0,1.1,0.4,1.8,1.3,2.4c0.9,0.5,2,0.8,3.6,0.8c2.5,0,4.4-0.7,5.7-2.2
			C155,373.7,155.6,371.6,155.6,368.8z"/>
		<path fill="#FFFFFF" d="M201.3,379.3h-9.6c-2.1-3.3-4-6.2-5.8-8.6s-3.6-4.9-5.6-7.5h-3.6v11.3c0,0.6,0.1,1.1,0.3,1.5
			s0.6,0.8,1.2,1c0.3,0.1,0.8,0.2,1.6,0.3c0.8,0.1,1.4,0.2,1.9,0.2v1.8h-15.1v-1.8c0.4,0,1-0.1,1.7-0.2c0.8-0.1,1.3-0.2,1.6-0.3
			c0.5-0.2,0.9-0.5,1.1-1c0.2-0.4,0.3-1,0.3-1.6v-25.7c0-0.6-0.1-1.1-0.3-1.6c-0.2-0.5-0.6-0.8-1.2-1c-0.4-0.2-1-0.3-1.6-0.4
			c-0.7-0.1-1.2-0.2-1.7-0.2v-1.8H183c1.5,0,2.9,0.2,4.2,0.5c1.3,0.3,2.5,0.8,3.6,1.5c1,0.7,1.9,1.5,2.5,2.6
			c0.6,1.1,0.9,2.4,0.9,3.9c0,1.4-0.2,2.6-0.6,3.6c-0.4,1.1-1,2-1.9,2.7c-0.8,0.7-1.7,1.3-2.7,1.9c-1.1,0.5-2.2,1-3.5,1.3
			c1.8,2.3,3.2,4.3,4.4,5.9c1.2,1.6,2.6,3.5,4.3,5.8c0.7,1,1.4,1.7,2,2.2c0.6,0.5,1.2,0.9,1.8,1.2c0.4,0.2,1,0.4,1.6,0.5
			c0.7,0.1,1.2,0.2,1.6,0.2V379.3z M188.1,352.8c0-2.2-0.6-3.9-1.9-5.1c-1.2-1.3-3-1.9-5.2-1.9h-4.3V361h3.3c2.3,0,4.2-0.7,5.8-2.2
			C187.3,357.4,188.1,355.3,188.1,352.8z"/>
		<path fill="#FFFFFF" d="M230.3,352.6h-1.9c-0.4-1.3-1.1-2.7-2.2-4.2c-1.1-1.5-2.2-2.3-3.2-2.5c-0.5-0.1-1.1-0.1-1.8-0.2
			c-0.7,0-1.5-0.1-2.4-0.1h-6V360h4.1c1.2,0,2.2-0.1,2.9-0.4c0.7-0.3,1.3-0.7,1.8-1.2c0.3-0.4,0.6-0.9,0.9-1.7s0.5-1.6,0.5-2.5h1.9
			v14H223c0-0.7-0.2-1.6-0.5-2.5s-0.6-1.6-0.9-2c-0.5-0.6-1.1-1-1.9-1.3c-0.8-0.2-1.7-0.3-2.8-0.3h-4.1v12.3c0,0.6,0.1,1,0.3,1.5
			c0.2,0.4,0.6,0.8,1.2,1.1c0.3,0.1,0.8,0.3,1.6,0.4c0.8,0.2,1.5,0.3,1.9,0.3v1.8h-15.4v-1.8c0.5,0,1.2-0.1,2-0.2s1.4-0.2,1.6-0.3
			c0.5-0.2,0.9-0.5,1.1-1c0.2-0.4,0.3-0.9,0.3-1.5v-25.7c0-0.6-0.1-1-0.3-1.5c-0.2-0.4-0.6-0.8-1.2-1c-0.5-0.2-1.1-0.4-1.8-0.6
			c-0.8-0.2-1.4-0.3-1.8-0.3v-1.8h27.9V352.6z"/>
		<path fill="#FFFFFF" d="M249.1,380.2c-2.1,0-4.2-0.4-6.1-1.3c-1.9-0.8-3.7-2-5.2-3.6c-1.5-1.6-2.7-3.5-3.6-5.8
			c-0.9-2.3-1.3-4.8-1.3-7.7s0.4-5.4,1.3-7.7c0.9-2.3,2.1-4.3,3.6-6c1.5-1.7,3.3-2.9,5.4-3.8s4.3-1.4,6.6-1.4c1.8,0,3.3,0.2,4.8,0.7
			c1.4,0.4,2.8,1,4.1,1.8l1-1.7h2l0.2,12.7h-2.1c-0.3-1.2-0.7-2.6-1.2-4s-1.2-2.7-1.9-3.7c-0.8-1.1-1.8-2-2.9-2.7
			c-1.1-0.6-2.4-1-3.8-1c-1.6,0-3.1,0.4-4.5,1.1c-1.4,0.7-2.6,1.8-3.6,3.2c-1,1.4-1.7,3.1-2.3,5.2s-0.8,4.4-0.8,7
			c0,2.3,0.3,4.4,0.9,6.3s1.4,3.6,2.5,5c1.1,1.4,2.3,2.5,3.8,3.3c1.5,0.8,3.1,1.2,4.9,1.2c1.4,0,2.6-0.2,3.7-0.6
			c1.1-0.4,2.1-1,3-1.7c0.8-0.7,1.6-1.6,2.2-2.5c0.6-0.9,1.2-2,1.6-3.1l1.9,0.9c-1.4,3.5-3.3,6.1-5.7,7.6
			C255.2,379.4,252.4,380.2,249.1,380.2z"/>
	</g>
	<polygon fill="#FFFFFF" points="474.4,311 75.8,311 77.2,306.5 473,306.5 	"/>
	<polygon fill="#FFFFFF" points="505.9,413.4 44.3,413.4 45.7,408.9 504.5,408.9 	"/>
</g>
</svg>
